<?xml version="1.0" encoding="utf-8"?>
<!-- Generator: $$$/GeneralStr/196=Adobe Illustrator 27.6.0, SVG Export Plug-In . SVG Version: 6.00 Build 0)  -->
<svg version="1.1" id="图层_1" xmlns="http://www.w3.org/2000/svg" xmlns:xlink="http://www.w3.org/1999/xlink" x="0px" y="0px"
	 viewBox="0 0 468 168.06" style="enable-background:new 0 0 468 168.06;" xml:space="preserve">
<style type="text/css">
	.st0{fill:none;stroke:#808080;stroke-width:1.5;}
	.st1{fill:#FF0000;}
	.st2{fill:#0000FF;}
</style>
<path class="st0" d="M7.5,45.78v-27c0-0.74,0.07-1.47,0.22-2.19c0.14-0.72,0.36-1.43,0.64-2.11c0.28-0.68,0.63-1.33,1.04-1.94
	c0.41-0.61,0.88-1.18,1.4-1.7c0.52-0.52,1.09-0.99,1.7-1.4c0.61-0.41,1.26-0.76,1.95-1.04c0.68-0.28,1.39-0.5,2.11-0.64
	c0.73-0.14,1.46-0.22,2.19-0.22H39c0.74,0,1.47,0.07,2.2,0.22c0.72,0.14,1.43,0.36,2.11,0.64c0.68,0.28,1.33,0.63,1.94,1.04
	c0.61,0.41,1.18,0.88,1.71,1.4c0.52,0.52,0.99,1.09,1.4,1.7c0.41,0.61,0.76,1.26,1.04,1.94c0.28,0.68,0.5,1.39,0.64,2.11
	c0.14,0.72,0.22,1.46,0.22,2.19v27c0,0.74-0.07,1.47-0.22,2.19c-0.14,0.73-0.36,1.43-0.64,2.11c-0.28,0.68-0.63,1.33-1.04,1.94
	c-0.41,0.61-0.88,1.18-1.4,1.71c-0.52,0.52-1.09,0.99-1.71,1.4c-0.61,0.41-1.26,0.76-1.94,1.04c-0.68,0.28-1.39,0.5-2.11,0.64
	c-0.73,0.14-1.46,0.22-2.2,0.22H18.75c-0.74,0-1.47-0.07-2.19-0.22c-0.72-0.14-1.43-0.36-2.11-0.64c-0.68-0.28-1.33-0.63-1.95-1.04
	c-0.61-0.41-1.18-0.88-1.7-1.4c-0.52-0.52-0.99-1.09-1.4-1.71c-0.41-0.61-0.76-1.26-1.04-1.94c-0.28-0.68-0.5-1.38-0.64-2.11
	C7.57,47.25,7.5,46.52,7.5,45.78"/>
<path class="st1" d="M18.75,30.95c0.65,0,1.19-0.11,1.5-0.26l-0.33-1.31c-0.25,0.08-0.59,0.16-0.97,0.16
	c-0.81,0-1.61-0.29-2.02-0.96c1.77-0.45,2.92-2.09,2.92-4.52c0-2.88-1.62-4.56-3.97-4.56s-3.97,1.68-3.97,4.56
	c0,2.54,1.26,4.21,3.16,4.58C15.67,29.98,16.94,30.95,18.75,30.95 M15.88,27.25c-1.32,0-2.15-1.2-2.15-3.2
	c0-1.9,0.83-3.03,2.15-3.03s2.16,1.14,2.16,3.03C18.04,26.05,17.2,27.25,15.88,27.25"/>
<path d="M42.09,23.94h1.64v2.14h-1.64V23.94 M41.17,21.16v5.75h3.49v-5.75h-0.93v1.97h-1.64v-1.97H41.17 M38.15,23.94h1.64v2.14
	h-1.64V23.94 M37.23,21.16v5.75h3.48v-5.75H39.8v1.97h-1.64v-1.97H37.23"/>
<path d="M38.49,41.92h4.75v2.11h-4.75V41.92 M37.52,39.06v5.86h6.72v-5.86h-1v1.99h-4.75v-1.99H37.52"/>
<path class="st0" d="M53.25,45.78v-27c0-0.74,0.07-1.47,0.22-2.19c0.14-0.72,0.36-1.43,0.64-2.11c0.28-0.68,0.63-1.33,1.04-1.94
	c0.41-0.61,0.88-1.18,1.4-1.7c0.52-0.52,1.09-0.99,1.7-1.4c0.61-0.41,1.26-0.76,1.95-1.04c0.68-0.28,1.39-0.5,2.11-0.64
	c0.73-0.14,1.46-0.22,2.19-0.22h20.25c0.74,0,1.47,0.07,2.2,0.22c0.72,0.14,1.43,0.36,2.11,0.64c0.68,0.28,1.33,0.63,1.94,1.04
	c0.61,0.41,1.18,0.88,1.71,1.4c0.52,0.52,0.99,1.09,1.4,1.7c0.41,0.61,0.76,1.26,1.04,1.94c0.28,0.68,0.5,1.39,0.64,2.11
	c0.14,0.72,0.22,1.46,0.22,2.19v27c0,0.74-0.07,1.47-0.22,2.19c-0.14,0.73-0.36,1.43-0.64,2.11c-0.28,0.68-0.63,1.33-1.04,1.94
	c-0.41,0.61-0.88,1.18-1.4,1.71c-0.52,0.52-1.09,0.99-1.71,1.4c-0.61,0.41-1.26,0.76-1.94,1.04c-0.68,0.28-1.39,0.5-2.11,0.64
	c-0.73,0.14-1.46,0.22-2.2,0.22H64.5c-0.74,0-1.47-0.07-2.19-0.22c-0.72-0.14-1.43-0.36-2.11-0.64c-0.68-0.28-1.33-0.63-1.95-1.04
	c-0.61-0.41-1.18-0.88-1.7-1.4c-0.52-0.52-0.99-1.09-1.4-1.71c-0.41-0.61-0.76-1.26-1.04-1.94c-0.28-0.68-0.5-1.38-0.64-2.11
	C53.32,47.25,53.25,46.52,53.25,45.78"/>
<path class="st1" d="M58.79,28.54h2.17l0.97-4.4c0.13-0.69,0.26-1.37,0.4-2.04h0.05c0.1,0.67,0.23,1.36,0.37,2.04l1,4.4h2.21
	l1.64-8.89h-1.68l-0.71,4.34c-0.13,0.92-0.26,1.87-0.4,2.83h-0.06c-0.19-0.96-0.36-1.92-0.56-2.83l-1.03-4.34h-1.52l-1.02,4.34
	c-0.19,0.92-0.38,1.87-0.56,2.83H60c-0.13-0.96-0.28-1.9-0.42-2.83l-0.69-4.34h-1.81L58.79,28.54"/>
<path d="M86.74,21v0.81h1.33v0.64c0,1.6-0.43,2.84-1.55,3.47c-1.12-0.62-1.55-1.87-1.55-3.47v-0.64h1.32V21h-3.8v0.81h1.5v0.64
	c0,1.41-0.55,2.94-1.99,3.6l0.61,0.79c0.89-0.44,1.47-1.21,1.81-2.12c0.34,1.06,1,1.84,2.1,2.28c1.1-0.43,1.75-1.21,2.09-2.27
	c0.33,0.9,0.9,1.67,1.78,2.11l0.6-0.79c-1.42-0.68-1.93-2.21-1.93-3.6v-0.64h1.48V21H86.74"/>
<path d="M83.17,39.07v0.82h2.84v0.72c0,1.79-1.31,3.09-3.16,3.59l0.48,0.78c1.46-0.43,2.64-1.34,3.17-2.67
	c0.54,1.32,1.72,2.23,3.18,2.67l0.48-0.78c-1.85-0.49-3.16-1.8-3.16-3.59v-0.72h2.87v-0.82H83.17"/>
<path class="st0" d="M99,45.78v-27c0-0.74,0.07-1.47,0.22-2.19c0.14-0.72,0.36-1.43,0.64-2.11c0.28-0.68,0.63-1.33,1.04-1.94
	c0.41-0.61,0.88-1.18,1.4-1.7c0.52-0.52,1.09-0.99,1.7-1.4c0.61-0.41,1.26-0.76,1.95-1.04c0.68-0.28,1.39-0.5,2.11-0.64
	c0.73-0.14,1.46-0.22,2.19-0.22h19.5c0.74,0,1.47,0.07,2.19,0.22c0.73,0.14,1.43,0.36,2.11,0.64c0.68,0.28,1.33,0.63,1.94,1.04
	c0.61,0.41,1.18,0.88,1.71,1.4c0.52,0.52,0.99,1.09,1.4,1.7c0.41,0.61,0.76,1.26,1.04,1.94c0.28,0.68,0.5,1.39,0.64,2.11
	c0.14,0.72,0.22,1.46,0.22,2.19v27c0,0.74-0.07,1.47-0.22,2.19c-0.14,0.73-0.36,1.43-0.64,2.11c-0.28,0.68-0.63,1.33-1.04,1.94
	c-0.41,0.61-0.88,1.18-1.4,1.71c-0.52,0.52-1.09,0.99-1.71,1.4c-0.61,0.41-1.26,0.76-1.94,1.04c-0.68,0.28-1.39,0.5-2.11,0.64
	c-0.72,0.14-1.45,0.22-2.19,0.22h-19.5c-0.74,0-1.47-0.07-2.19-0.22c-0.72-0.14-1.43-0.36-2.11-0.64c-0.68-0.28-1.33-0.63-1.95-1.04
	c-0.61-0.41-1.18-0.88-1.7-1.4c-0.52-0.52-0.99-1.09-1.4-1.71c-0.41-0.61-0.76-1.26-1.04-1.94c-0.28-0.68-0.5-1.38-0.64-2.11
	C99.07,47.25,99,46.52,99,45.78"/>
<polyline class="st1" points="103.55,28.54 109.13,28.54 109.13,27.05 105.33,27.05 105.33,24.67 108.43,24.67 108.43,23.18 
	105.33,23.18 105.33,21.13 109,21.13 109,19.65 103.55,19.65 103.55,28.54 "/>
<path d="M132.31,26v0.81h3.46V26h-2.47V22h2.43v-0.82h-3.41V26 M128.39,25.97v0.84h0.55c1.01,0,1.92-0.04,3-0.29l-0.11-0.83
	c-0.86,0.22-1.66,0.26-2.46,0.28V22h2.45v-0.82h-3.43V25.97"/>
<polyline points="128.74,44.07 128.74,44.88 135.47,44.88 135.47,44.07 129.73,44.07 129.73,39.99 135.36,39.99 135.36,39.18 
	128.74,39.18 128.74,44.07 "/>
<path class="st0" d="M144,45.78v-27c0-0.74,0.07-1.47,0.22-2.19c0.14-0.72,0.36-1.43,0.64-2.11c0.28-0.68,0.63-1.33,1.04-1.94
	c0.41-0.61,0.88-1.18,1.4-1.7c0.52-0.52,1.09-0.99,1.7-1.4c0.61-0.41,1.26-0.76,1.95-1.04c0.68-0.28,1.39-0.5,2.11-0.64
	c0.73-0.14,1.46-0.22,2.19-0.22h20.25c0.74,0,1.47,0.07,2.19,0.22c0.73,0.14,1.43,0.36,2.11,0.64c0.68,0.28,1.33,0.63,1.94,1.04
	c0.61,0.41,1.18,0.88,1.71,1.4c0.52,0.52,0.99,1.09,1.4,1.7c0.41,0.61,0.76,1.26,1.04,1.94c0.28,0.68,0.5,1.39,0.64,2.11
	c0.14,0.72,0.22,1.46,0.22,2.19v27c0,0.74-0.07,1.47-0.22,2.19c-0.14,0.73-0.36,1.43-0.64,2.11c-0.28,0.68-0.63,1.33-1.04,1.94
	c-0.41,0.61-0.88,1.18-1.4,1.71c-0.52,0.52-1.09,0.99-1.71,1.4c-0.61,0.41-1.26,0.76-1.94,1.04c-0.68,0.28-1.39,0.5-2.11,0.64
	c-0.72,0.14-1.45,0.22-2.19,0.22h-20.25c-0.74,0-1.47-0.07-2.19-0.22c-0.72-0.14-1.43-0.36-2.11-0.64
	c-0.68-0.28-1.33-0.63-1.95-1.04c-0.61-0.41-1.18-0.88-1.7-1.4c-0.52-0.52-0.99-1.09-1.4-1.71c-0.41-0.61-0.76-1.26-1.04-1.94
	c-0.28-0.68-0.5-1.38-0.64-2.11C144.07,47.25,144,46.52,144,45.78"/>
<path class="st1" d="M153.98,28.54h1.98l-2.07-3.64c1.02-0.4,1.69-1.22,1.69-2.56c0-2.04-1.48-2.7-3.35-2.7h-3.08v8.89h1.78v-3.36
	h1.24L153.98,28.54 M150.92,23.77v-2.71h1.15c1.14,0,1.76,0.33,1.76,1.28c0,0.95-0.62,1.43-1.76,1.43H150.92"/>
<path d="M178.14,21.22v0.82h2.71v4.86h0.98v-5.68H178.14 M173.77,21.24v0.81h2.77v4.85h0.97v-5.66H173.77"/>
<polyline points="174.25,39.24 174.25,40.05 180.01,40.05 180.01,44.9 180.99,44.9 180.99,39.24 174.25,39.24 "/>
<path class="st0" d="M189.75,45.78v-27c0-0.74,0.07-1.47,0.22-2.19c0.14-0.72,0.36-1.43,0.64-2.11c0.28-0.68,0.63-1.33,1.04-1.94
	c0.41-0.61,0.88-1.18,1.4-1.7c0.52-0.52,1.09-0.99,1.7-1.4c0.61-0.41,1.26-0.76,1.95-1.04c0.68-0.28,1.39-0.5,2.11-0.64
	c0.72-0.14,1.46-0.22,2.19-0.22h20.25c0.74,0,1.47,0.07,2.19,0.22c0.73,0.14,1.43,0.36,2.11,0.64c0.68,0.28,1.33,0.63,1.94,1.04
	s1.18,0.88,1.71,1.4c0.52,0.52,0.99,1.09,1.4,1.7c0.41,0.61,0.76,1.26,1.04,1.94c0.28,0.68,0.5,1.39,0.64,2.11
	c0.14,0.72,0.22,1.46,0.22,2.19v27c0,0.74-0.07,1.47-0.22,2.19c-0.14,0.73-0.36,1.43-0.64,2.11c-0.28,0.68-0.63,1.33-1.04,1.94
	c-0.41,0.61-0.88,1.18-1.4,1.71c-0.52,0.52-1.09,0.99-1.71,1.4c-0.61,0.41-1.26,0.76-1.94,1.04s-1.39,0.5-2.11,0.64
	c-0.72,0.14-1.46,0.22-2.19,0.22H201c-0.74,0-1.47-0.07-2.19-0.22c-0.72-0.14-1.43-0.36-2.11-0.64c-0.68-0.28-1.33-0.63-1.95-1.04
	c-0.61-0.41-1.18-0.88-1.7-1.4c-0.52-0.52-0.99-1.09-1.4-1.71c-0.41-0.61-0.76-1.26-1.04-1.94c-0.28-0.68-0.5-1.38-0.64-2.11
	C189.82,47.25,189.75,46.52,189.75,45.78"/>
<polyline class="st1" points="196.51,28.54 198.28,28.54 198.28,21.13 200.79,21.13 200.79,19.65 194.01,19.65 194.01,21.13 
	196.51,21.13 196.51,28.54 "/>
<path d="M224.79,21.27v1.44c0,1.03-0.46,2.32-1.48,3.11c-1.03-0.8-1.48-2.12-1.48-3.11v-1.44h-1v1.4c0,1.13-0.56,2.64-1.95,3.31
	l0.57,0.73c0.96-0.49,1.57-1.38,1.88-2.35c0.33,1.02,0.95,1.99,1.97,2.51c1.02-0.5,1.64-1.45,1.97-2.46
	c0.31,0.97,0.92,1.82,1.91,2.29l0.55-0.74c-1.39-0.62-1.94-2.04-1.94-3.29v-1.4H224.79"/>
<path d="M222.79,38.98v1.75c0,1.8-1.43,3.06-3.35,3.5l0.48,0.8c1.52-0.4,2.77-1.26,3.36-2.57c0.59,1.31,1.85,2.17,3.36,2.57
	l0.48-0.8c-1.92-0.45-3.35-1.7-3.35-3.5v-1.75H222.79"/>
<path class="st0" d="M235.5,45.78v-27c0-0.74,0.07-1.47,0.22-2.19c0.14-0.72,0.36-1.43,0.64-2.11c0.28-0.68,0.63-1.33,1.04-1.94
	c0.41-0.61,0.88-1.18,1.4-1.7c0.52-0.52,1.09-0.99,1.7-1.4c0.62-0.41,1.26-0.76,1.95-1.04c0.68-0.28,1.39-0.5,2.11-0.64
	c0.73-0.14,1.46-0.22,2.19-0.22H267c0.74,0,1.47,0.07,2.19,0.22c0.73,0.14,1.43,0.36,2.11,0.64c0.68,0.28,1.33,0.63,1.95,1.04
	s1.18,0.88,1.71,1.4c0.52,0.52,0.99,1.09,1.4,1.7c0.41,0.61,0.76,1.26,1.04,1.94c0.28,0.68,0.5,1.39,0.64,2.11
	c0.14,0.72,0.22,1.46,0.22,2.19v27c0,0.74-0.07,1.47-0.22,2.19c-0.14,0.73-0.36,1.43-0.64,2.11c-0.28,0.68-0.63,1.33-1.04,1.94
	c-0.41,0.61-0.88,1.18-1.4,1.71c-0.52,0.52-1.09,0.99-1.71,1.4c-0.61,0.41-1.26,0.76-1.95,1.04c-0.68,0.28-1.39,0.5-2.11,0.64
	c-0.72,0.14-1.45,0.22-2.19,0.22h-20.25c-0.74,0-1.47-0.07-2.19-0.22c-0.72-0.14-1.43-0.36-2.11-0.64s-1.33-0.63-1.95-1.04
	c-0.61-0.41-1.18-0.88-1.7-1.4c-0.52-0.52-0.99-1.09-1.4-1.71c-0.41-0.61-0.76-1.26-1.04-1.94c-0.28-0.68-0.5-1.38-0.64-2.11
	C235.57,47.25,235.5,46.52,235.5,45.78"/>
<path class="st1" d="M241.85,28.54h1.76v-3.25l2.67-5.64h-1.85l-0.89,2.17c-0.26,0.66-0.52,1.29-0.79,1.97h-0.05
	c-0.28-0.68-0.52-1.31-0.77-1.97l-0.89-2.17h-1.88l2.68,5.64V28.54"/>
<polyline class="st2" points="263.98,30.57 266.36,30.57 266.36,29.95 264.8,29.95 264.8,19.67 266.36,19.67 266.36,19.03 
	263.98,19.03 263.98,30.57 "/>
<rect x="267.98" y="19.74" class="st2" width="1.1" height="8.79"/>
<polyline class="st2" points="270.69,30.57 273.08,30.57 273.08,19.03 270.69,19.03 270.69,19.67 272.25,19.67 272.25,29.95 
	270.69,29.95 270.69,30.57 "/>
<polyline points="269.7,38.89 269.7,43.65 266.91,43.65 266.91,38.89 265.93,38.89 265.93,43.65 263.42,43.65 263.42,44.48 
	273.18,44.48 273.18,43.65 270.68,43.65 270.68,38.89 269.7,38.89 "/>
<path class="st0" d="M281.25,45.78v-27c0-0.74,0.07-1.47,0.22-2.19c0.14-0.72,0.36-1.43,0.64-2.11c0.28-0.68,0.63-1.33,1.04-1.94
	c0.41-0.61,0.88-1.18,1.4-1.7c0.52-0.52,1.09-0.99,1.7-1.4c0.61-0.41,1.26-0.76,1.95-1.04c0.68-0.28,1.39-0.5,2.11-0.64
	c0.72-0.14,1.45-0.22,2.19-0.22h20.25c0.74,0,1.47,0.07,2.2,0.22c0.72,0.14,1.43,0.36,2.11,0.64c0.68,0.28,1.33,0.63,1.95,1.04
	s1.18,0.88,1.71,1.4c0.52,0.52,0.99,1.09,1.4,1.7c0.41,0.61,0.76,1.26,1.04,1.94c0.28,0.68,0.5,1.39,0.64,2.11
	c0.14,0.72,0.22,1.46,0.22,2.19v27c0,0.74-0.07,1.47-0.22,2.19c-0.14,0.73-0.36,1.43-0.64,2.11c-0.28,0.68-0.63,1.33-1.04,1.94
	c-0.41,0.61-0.88,1.18-1.4,1.71c-0.52,0.52-1.09,0.99-1.71,1.4c-0.61,0.41-1.26,0.76-1.95,1.04c-0.68,0.28-1.39,0.5-2.11,0.64
	c-0.73,0.14-1.46,0.22-2.2,0.22H292.5c-0.74,0-1.47-0.07-2.19-0.22c-0.73-0.14-1.43-0.36-2.11-0.64s-1.33-0.63-1.95-1.04
	c-0.61-0.41-1.18-0.88-1.7-1.4c-0.52-0.52-0.99-1.09-1.4-1.71c-0.41-0.61-0.76-1.26-1.04-1.94c-0.28-0.68-0.5-1.38-0.64-2.11
	C281.32,47.25,281.25,46.52,281.25,45.78"/>
<path class="st1" d="M289.36,28.7c2.16,0,3.42-1.22,3.42-4.16v-4.89h-1.7v5.05c0,1.85-0.69,2.47-1.72,2.47
	c-1.04,0-1.69-0.62-1.69-2.47v-5.05h-1.77v4.89C285.9,27.48,287.18,28.7,289.36,28.7"/>
<polyline class="st2" points="303.36,30.57 305.73,30.57 305.73,29.95 304.18,29.95 304.18,19.67 305.73,19.67 305.73,19.03 
	303.36,19.03 303.36,30.57 "/>
<path class="st2" d="M307.36,28.54h1v-4.87c0-0.76-0.07-1.82-0.14-2.59h0.05l0.71,2l1.67,4.57h0.74l1.66-4.57l0.71-2h0.05
	c-0.06,0.77-0.14,1.84-0.14,2.59v4.87h1.03v-8.79h-1.33l-1.68,4.7c-0.2,0.6-0.38,1.22-0.61,1.84H311c-0.22-0.61-0.41-1.24-0.64-1.84
	l-1.68-4.7h-1.33V28.54"/>
<polyline class="st2" points="316.29,30.57 318.68,30.57 318.68,19.03 316.29,19.03 316.29,19.67 317.86,19.67 317.86,29.95 
	316.29,29.95 316.29,30.57 "/>
<polyline points="305.66,42.6 305.66,43.44 308.22,43.44 308.22,47.44 309.21,47.44 309.21,36.79 308.22,36.79 308.22,39.74 
	305.66,39.74 305.66,40.57 308.22,40.57 308.22,42.6 305.66,42.6 "/>
<path class="st0" d="M327,45.78v-27c0-0.74,0.07-1.47,0.22-2.19c0.14-0.72,0.36-1.43,0.64-2.11c0.28-0.68,0.63-1.33,1.04-1.94
	c0.41-0.61,0.88-1.18,1.4-1.7c0.52-0.52,1.09-0.99,1.7-1.4c0.61-0.41,1.26-0.76,1.95-1.04c0.68-0.28,1.39-0.5,2.11-0.64
	c0.72-0.14,1.45-0.22,2.19-0.22h19.5c0.74,0,1.47,0.07,2.2,0.22c0.72,0.14,1.43,0.36,2.11,0.64c0.68,0.28,1.33,0.63,1.95,1.04
	s1.18,0.88,1.71,1.4c0.52,0.52,0.99,1.09,1.4,1.7c0.41,0.61,0.76,1.26,1.04,1.94c0.28,0.68,0.5,1.39,0.64,2.11
	c0.14,0.72,0.22,1.46,0.22,2.19v27c0,0.74-0.07,1.47-0.22,2.19c-0.14,0.73-0.36,1.43-0.64,2.11c-0.28,0.68-0.63,1.33-1.04,1.94
	c-0.41,0.61-0.88,1.18-1.4,1.71c-0.52,0.52-1.09,0.99-1.71,1.4c-0.61,0.41-1.26,0.76-1.95,1.04c-0.68,0.28-1.39,0.5-2.11,0.64
	c-0.73,0.14-1.46,0.22-2.2,0.22h-19.5c-0.74,0-1.47-0.07-2.19-0.22c-0.73-0.14-1.43-0.36-2.11-0.64s-1.33-0.63-1.95-1.04
	c-0.61-0.41-1.18-0.88-1.7-1.4c-0.52-0.52-0.99-1.09-1.4-1.71c-0.41-0.61-0.76-1.26-1.04-1.94c-0.28-0.68-0.5-1.38-0.64-2.11
	C327.07,47.25,327,46.52,327,45.78"/>
<rect x="331.54" y="19.65" class="st1" width="1.78" height="8.89"/>
<polyline points="358.86,36.78 358.86,47.43 359.86,47.43 359.86,43.7 362.3,43.7 362.3,42.86 359.86,42.86 359.86,40.74 
	362.3,40.74 362.3,39.91 359.86,39.91 359.86,36.78 358.86,36.78 "/>
<path class="st0" d="M372,45.78v-27c0-0.74,0.07-1.47,0.22-2.19c0.14-0.72,0.36-1.43,0.64-2.11c0.28-0.68,0.63-1.33,1.04-1.94
	c0.41-0.61,0.88-1.18,1.4-1.7c0.52-0.52,1.09-0.99,1.7-1.4c0.62-0.41,1.26-0.76,1.95-1.04c0.68-0.28,1.39-0.5,2.11-0.64
	c0.72-0.14,1.45-0.22,2.19-0.22h20.25c0.74,0,1.47,0.07,2.2,0.22c0.72,0.14,1.43,0.36,2.11,0.64c0.68,0.28,1.33,0.63,1.95,1.04
	s1.18,0.88,1.71,1.4c0.52,0.52,0.99,1.09,1.4,1.7c0.41,0.61,0.76,1.26,1.04,1.94c0.28,0.68,0.5,1.39,0.64,2.11
	c0.14,0.72,0.22,1.46,0.22,2.19v27c0,0.74-0.07,1.47-0.22,2.19c-0.14,0.73-0.36,1.43-0.64,2.11c-0.28,0.68-0.63,1.33-1.04,1.94
	c-0.41,0.61-0.88,1.18-1.4,1.71c-0.52,0.52-1.09,0.99-1.71,1.4c-0.61,0.41-1.26,0.76-1.95,1.04c-0.68,0.28-1.39,0.5-2.11,0.64
	c-0.73,0.14-1.46,0.22-2.2,0.22h-20.25c-0.74,0-1.47-0.07-2.19-0.22c-0.73-0.14-1.43-0.36-2.11-0.64c-0.68-0.28-1.33-0.63-1.95-1.04
	c-0.61-0.41-1.18-0.88-1.7-1.4c-0.52-0.52-0.99-1.09-1.4-1.71c-0.41-0.61-0.76-1.26-1.04-1.94c-0.28-0.68-0.5-1.38-0.64-2.11
	C372.07,47.25,372,46.52,372,45.78"/>
<path class="st1" d="M380.66,27.17c-1.32,0-2.15-1.22-2.15-3.12s0.83-3.03,2.15-3.03c1.32,0,2.16,1.14,2.16,3.03
	S381.98,27.17,380.66,27.17 M380.66,28.7c2.35,0,3.97-1.76,3.97-4.65c0-2.88-1.62-4.56-3.97-4.56c-2.35,0-3.97,1.68-3.97,4.56
	C376.69,26.94,378.31,28.7,380.66,28.7"/>
<path d="M403.82,18.95v10.11h0.95v-3.54h1.81v3.93h0.96V18.79h-0.96v2.96h-1.81v-2.81H403.82 M406.58,22.58v2.11h-1.81v-2.11H406.58
	"/>
<polyline points="403.82,36.95 403.82,47.04 404.77,47.04 404.77,41.88 406.63,41.88 406.63,47.43 407.58,47.43 407.58,36.77 
	406.63,36.77 406.63,41.05 404.77,41.05 404.77,36.95 403.82,36.95 "/>
<path class="st0" d="M417.75,45.78v-27c0-0.74,0.07-1.47,0.22-2.19c0.14-0.72,0.36-1.43,0.64-2.11c0.28-0.68,0.63-1.33,1.04-1.94
	c0.41-0.61,0.88-1.18,1.4-1.7c0.52-0.52,1.09-0.99,1.7-1.4c0.61-0.41,1.26-0.76,1.95-1.04c0.68-0.28,1.39-0.5,2.11-0.64
	c0.73-0.14,1.46-0.22,2.2-0.22h20.25c0.74,0,1.47,0.07,2.2,0.22c0.72,0.14,1.43,0.36,2.11,0.64c0.68,0.28,1.33,0.63,1.95,1.04
	s1.18,0.88,1.71,1.4c0.52,0.52,0.99,1.09,1.4,1.7c0.41,0.61,0.76,1.26,1.04,1.94c0.28,0.68,0.5,1.39,0.64,2.11
	c0.14,0.72,0.22,1.46,0.22,2.19v27c0,0.74-0.07,1.47-0.22,2.19c-0.14,0.73-0.36,1.43-0.64,2.11c-0.28,0.68-0.63,1.33-1.04,1.94
	c-0.41,0.61-0.88,1.18-1.4,1.71c-0.52,0.52-1.09,0.99-1.71,1.4c-0.61,0.41-1.26,0.76-1.95,1.04c-0.68,0.28-1.39,0.5-2.11,0.64
	c-0.73,0.14-1.46,0.22-2.2,0.22H429c-0.74,0-1.47-0.07-2.2-0.22c-0.72-0.14-1.43-0.36-2.11-0.64c-0.68-0.28-1.33-0.63-1.95-1.04
	c-0.61-0.41-1.18-0.88-1.7-1.4c-0.52-0.52-0.99-1.09-1.4-1.71c-0.41-0.61-0.76-1.26-1.04-1.94c-0.28-0.68-0.5-1.38-0.64-2.11
	C417.82,47.25,417.75,46.52,417.75,45.78"/>
<path class="st1" d="M424.51,23.98v-2.92h1.01c1.22,0,1.87,0.35,1.87,1.38c0,1.02-0.59,1.54-1.81,1.54H424.51 M422.73,28.54h1.78
	v-3.15h1.19c1.91,0,3.43-0.91,3.43-2.94c0-2.1-1.51-2.79-3.48-2.79h-2.92V28.54"/>
<path d="M450.45,18.97v2.72h-2v0.83h2v2.04h-2.03v0.82h2.03v3.69h0.95v-10.1H450.45 M452.58,18.82v10.65h0.96V18.82H452.58"/>
<path d="M450.45,36.96v4.08h-1.97v0.84h1.97v5.19h0.95V36.96H450.45 M452.6,36.79v10.67h0.96V36.79H452.6"/>
<path class="st0" d="M26.25,98.27v-27c0-0.74,0.07-1.47,0.22-2.19c0.14-0.72,0.36-1.43,0.64-2.11c0.28-0.68,0.63-1.33,1.04-1.94
	s0.88-1.18,1.4-1.7c0.52-0.52,1.09-0.99,1.7-1.4c0.61-0.41,1.26-0.76,1.95-1.04c0.68-0.28,1.39-0.5,2.11-0.64
	c0.73-0.14,1.46-0.22,2.19-0.22h21c0.74,0,1.47,0.07,2.2,0.22c0.72,0.14,1.43,0.36,2.11,0.64c0.68,0.28,1.33,0.63,1.94,1.04
	c0.61,0.41,1.18,0.88,1.71,1.4c0.52,0.52,0.99,1.09,1.4,1.7s0.76,1.26,1.04,1.94c0.28,0.68,0.5,1.39,0.64,2.11
	c0.14,0.72,0.22,1.46,0.22,2.19v27c0,0.74-0.07,1.47-0.22,2.19c-0.14,0.73-0.36,1.43-0.64,2.11c-0.28,0.68-0.63,1.33-1.04,1.94
	c-0.41,0.61-0.88,1.18-1.4,1.71c-0.52,0.52-1.09,0.99-1.71,1.4c-0.61,0.41-1.26,0.76-1.94,1.04c-0.68,0.28-1.39,0.5-2.11,0.64
	c-0.73,0.14-1.46,0.22-2.2,0.22h-21c-0.74,0-1.47-0.07-2.19-0.22c-0.72-0.14-1.43-0.36-2.11-0.64c-0.68-0.28-1.33-0.63-1.95-1.04
	c-0.61-0.41-1.18-0.88-1.7-1.4c-0.52-0.52-0.99-1.09-1.4-1.71c-0.41-0.61-0.76-1.26-1.04-1.94c-0.28-0.68-0.5-1.38-0.64-2.11
	C26.32,99.74,26.25,99.01,26.25,98.27"/>
<path class="st1" d="M32.76,77.37l0.26-0.97c0.26-0.92,0.52-1.93,0.76-2.9h0.05c0.26,0.95,0.5,1.98,0.78,2.9l0.26,0.97H32.76
	 M29.95,81.03h1.8l0.62-2.28h2.87l0.62,2.28h1.87l-2.84-8.89h-2.1L29.95,81.03"/>
<path d="M60.5,75.02l1.48,3.65h-2.92L60.5,75.02 M57.72,79.53h5.62l-2.82-6.73L57.72,79.53"/>
<path d="M62.92,92.5v4.04h-4.79V92.5H62.92 M57.13,91.68v5.68h6.78v-5.68H57.13"/>
<path class="st0" d="M72.75,98.27v-27c0-0.74,0.07-1.47,0.22-2.19c0.14-0.72,0.36-1.43,0.64-2.11c0.28-0.68,0.63-1.33,1.04-1.94
	s0.88-1.18,1.4-1.7c0.52-0.52,1.09-0.99,1.7-1.4c0.61-0.41,1.26-0.76,1.95-1.04c0.68-0.28,1.39-0.5,2.11-0.64
	c0.73-0.14,1.46-0.22,2.19-0.22h21c0.74,0,1.47,0.07,2.19,0.22c0.73,0.14,1.43,0.36,2.11,0.64c0.68,0.28,1.33,0.63,1.94,1.04
	c0.61,0.41,1.18,0.88,1.71,1.4c0.52,0.52,0.99,1.09,1.4,1.7s0.76,1.26,1.04,1.94c0.28,0.68,0.5,1.39,0.64,2.11
	c0.14,0.72,0.22,1.46,0.22,2.19v27c0,0.74-0.07,1.47-0.22,2.19c-0.14,0.73-0.36,1.43-0.64,2.11c-0.28,0.68-0.63,1.33-1.04,1.94
	c-0.41,0.61-0.88,1.18-1.4,1.71c-0.52,0.52-1.09,0.99-1.71,1.4c-0.61,0.41-1.26,0.76-1.94,1.04c-0.68,0.28-1.39,0.5-2.11,0.64
	c-0.72,0.14-1.45,0.22-2.19,0.22H84c-0.74,0-1.47-0.07-2.19-0.22c-0.72-0.14-1.43-0.36-2.11-0.64c-0.68-0.28-1.33-0.63-1.95-1.04
	c-0.61-0.41-1.18-0.88-1.7-1.4c-0.52-0.52-0.99-1.09-1.4-1.71c-0.41-0.61-0.76-1.26-1.04-1.94c-0.28-0.68-0.5-1.38-0.64-2.11
	C72.82,99.74,72.75,99.01,72.75,98.27"/>
<path class="st1" d="M80.24,81.19c2.05,0,3.26-1.24,3.26-2.69c0-1.28-0.71-1.98-1.79-2.43l-1.17-0.47
	c-0.76-0.31-1.38-0.54-1.38-1.18c0-0.59,0.48-0.93,1.26-0.93c0.74,0,1.33,0.28,1.9,0.73l0.9-1.1c-0.72-0.73-1.75-1.15-2.8-1.15
	c-1.79,0-3.07,1.13-3.07,2.57c0,1.3,0.91,2.02,1.81,2.38l1.18,0.52c0.79,0.34,1.34,0.54,1.34,1.2c0,0.62-0.49,1.02-1.42,1.02
	c-0.78,0-1.63-0.4-2.26-0.98L77,79.9C77.87,80.74,79.05,81.19,80.24,81.19"/>
<path d="M98.04,83.38l0.67-0.3c-1.03-1.7-1.52-3.74-1.52-5.78c0-2.03,0.49-4.05,1.52-5.77l-0.67-0.31c-1.1,1.8-1.76,3.73-1.76,6.08
	C96.27,79.66,96.93,81.59,98.04,83.38"/>
<path d="M103.83,78.62c1.14,0,2.02,0.74,2.02,1.77c0,1.03-0.88,1.79-2.02,1.79c-1.13,0-2.02-0.76-2.02-1.79
	C101.81,79.36,102.7,78.62,103.83,78.62 M103.83,77.9c-1.58,0-2.82,1.04-2.82,2.49c0,1.45,1.24,2.49,2.82,2.49
	c1.59,0,2.83-1.04,2.83-2.49C106.66,78.94,105.42,77.9,103.83,77.9"/>
<path d="M109.62,83.38c1.1-1.79,1.76-3.72,1.76-6.08c0-2.35-0.66-4.28-1.76-6.08l-0.69,0.31c1.03,1.72,1.55,3.74,1.55,5.77
	c0,2.04-0.52,4.08-1.55,5.78L109.62,83.38"/>
<polyline points="97.38,93.98 97.38,99.55 104.25,99.55 104.25,98.73 98.37,98.73 98.37,93.98 97.38,93.98 "/>
<path class="st0" d="M119.25,98.27v-27c0-0.74,0.07-1.47,0.22-2.19c0.14-0.72,0.36-1.43,0.64-2.11c0.28-0.68,0.63-1.33,1.04-1.94
	s0.88-1.18,1.4-1.7c0.52-0.52,1.09-0.99,1.7-1.4c0.61-0.41,1.26-0.76,1.95-1.04c0.68-0.28,1.39-0.5,2.11-0.64
	c0.73-0.14,1.46-0.22,2.19-0.22h21c0.74,0,1.47,0.07,2.19,0.22c0.73,0.14,1.43,0.36,2.11,0.64c0.68,0.28,1.33,0.63,1.94,1.04
	c0.61,0.41,1.18,0.88,1.71,1.4c0.52,0.52,0.99,1.09,1.4,1.7s0.76,1.26,1.04,1.94c0.28,0.68,0.5,1.39,0.64,2.11
	c0.14,0.72,0.22,1.46,0.22,2.19v27c0,0.74-0.07,1.47-0.22,2.19c-0.14,0.73-0.36,1.43-0.64,2.11c-0.28,0.68-0.63,1.33-1.04,1.94
	c-0.41,0.61-0.88,1.18-1.4,1.71c-0.52,0.52-1.09,0.99-1.71,1.4c-0.61,0.41-1.26,0.76-1.94,1.04c-0.68,0.28-1.39,0.5-2.11,0.64
	c-0.72,0.14-1.45,0.22-2.19,0.22h-21c-0.74,0-1.47-0.07-2.19-0.22c-0.72-0.14-1.43-0.36-2.11-0.64c-0.68-0.28-1.33-0.63-1.95-1.04
	c-0.61-0.41-1.18-0.88-1.7-1.4c-0.52-0.52-0.99-1.09-1.4-1.71c-0.41-0.61-0.76-1.26-1.04-1.94c-0.28-0.68-0.5-1.38-0.64-2.11
	C119.32,99.74,119.25,99.01,119.25,98.27"/>
<path class="st1" d="M125.87,79.59v-6.02h0.54c1.67,0,2.7,0.82,2.7,2.98c0,2.16-1.03,3.05-2.7,3.05H125.87 M124.09,81.03h2.53
	c2.63,0,4.29-1.49,4.29-4.49c0-2.99-1.67-4.4-4.39-4.4h-2.43V81.03"/>
<path d="M153.04,72.77v1.55c-1.49,0.21-2.58,1.36-2.58,2.87c0,1.69,1.33,2.92,3.07,2.92c1.71,0,3.06-1.22,3.06-2.92
	c0-1.52-1.1-2.67-2.59-2.87v-1.55H153.04 M153.53,75.14c1.19,0,2.12,0.88,2.12,2.05c0,1.19-0.94,2.08-2.12,2.08
	c-1.21,0-2.14-0.89-2.14-2.08C151.39,76.01,152.32,75.14,153.53,75.14"/>
<path d="M153.47,92.37c1.37,0,2.43,0.89,2.43,2.12c0,1.24-1.06,2.15-2.43,2.15c-1.36,0-2.42-0.91-2.42-2.15
	C151.05,93.25,152.11,92.37,153.47,92.37 M153.47,91.5c-1.9,0-3.38,1.25-3.38,2.99c0,1.74,1.49,2.99,3.38,2.99
	c1.91,0,3.4-1.25,3.4-2.99C156.86,92.75,155.38,91.5,153.47,91.5"/>
<path class="st0" d="M165.75,98.27v-27c0-0.74,0.07-1.47,0.22-2.19c0.14-0.72,0.36-1.43,0.64-2.11c0.28-0.68,0.63-1.33,1.04-1.94
	s0.88-1.18,1.4-1.7c0.52-0.52,1.09-0.99,1.7-1.4c0.61-0.41,1.26-0.76,1.95-1.04c0.68-0.28,1.39-0.5,2.11-0.64
	c0.72-0.14,1.46-0.22,2.19-0.22h21c0.74,0,1.47,0.07,2.19,0.22c0.73,0.14,1.43,0.36,2.11,0.64c0.68,0.28,1.33,0.63,1.94,1.04
	c0.61,0.41,1.18,0.88,1.71,1.4c0.52,0.52,0.99,1.09,1.4,1.7s0.76,1.26,1.04,1.94c0.28,0.68,0.5,1.39,0.64,2.11
	c0.14,0.72,0.22,1.46,0.22,2.19v27c0,0.74-0.07,1.47-0.22,2.19c-0.14,0.73-0.36,1.43-0.64,2.11c-0.28,0.68-0.63,1.33-1.04,1.94
	c-0.41,0.61-0.88,1.18-1.4,1.71c-0.52,0.52-1.09,0.99-1.71,1.4c-0.61,0.41-1.26,0.76-1.94,1.04c-0.68,0.28-1.39,0.5-2.11,0.64
	c-0.72,0.14-1.45,0.22-2.19,0.22h-21c-0.74,0-1.47-0.07-2.19-0.22c-0.72-0.14-1.43-0.36-2.11-0.64c-0.68-0.28-1.33-0.63-1.95-1.04
	c-0.61-0.41-1.18-0.88-1.7-1.4c-0.52-0.52-0.99-1.09-1.4-1.71c-0.41-0.61-0.76-1.26-1.04-1.94c-0.28-0.68-0.5-1.38-0.64-2.11
	C165.82,99.74,165.75,99.01,165.75,98.27"/>
<polyline class="st1" points="170.59,81.03 172.37,81.03 172.37,77.43 175.52,77.43 175.52,75.94 172.37,75.94 172.37,73.62 
	176.07,73.62 176.07,72.14 170.59,72.14 170.59,81.03 "/>
<path d="M192,75.6c-0.48,0-0.86,0.38-0.86,0.86c0,0.48,0.38,0.86,0.86,0.86s0.86-0.38,0.86-0.86C192.86,75.99,192.48,75.6,192,75.6"
	/>
<path d="M197.89,71.79c0,0.25-0.2,0.45-0.46,0.45c-0.26,0-0.47-0.19-0.47-0.45c0-0.26,0.2-0.46,0.47-0.46
	C197.69,71.33,197.89,71.52,197.89,71.79 M196.48,72.7c0,0.26-0.21,0.47-0.46,0.47c-0.26,0-0.45-0.21-0.45-0.47
	c0-0.24,0.19-0.44,0.45-0.44C196.27,72.26,196.48,72.46,196.48,72.7 M195.45,74.03c0,0.26-0.21,0.47-0.46,0.47
	c-0.26,0-0.47-0.21-0.47-0.47c0-0.24,0.21-0.45,0.47-0.45C195.24,73.59,195.45,73.79,195.45,74.03 M194.9,75.64
	c0,0.25-0.21,0.46-0.47,0.46c-0.25,0-0.45-0.21-0.45-0.46c0-0.25,0.2-0.46,0.45-0.46C194.69,75.18,194.9,75.39,194.9,75.64
	 M194.9,77.33c0,0.25-0.21,0.46-0.47,0.46c-0.25,0-0.45-0.21-0.45-0.46c0-0.25,0.2-0.45,0.45-0.45
	C194.69,76.88,194.9,77.08,194.9,77.33 M195.45,78.91c0,0.26-0.21,0.46-0.46,0.46c-0.25,0-0.46-0.19-0.46-0.46
	c0-0.25,0.21-0.44,0.46-0.44C195.24,78.47,195.45,78.66,195.45,78.91 M196.49,80.26c0,0.25-0.22,0.44-0.46,0.44
	c-0.26,0-0.45-0.19-0.45-0.44c0-0.26,0.19-0.46,0.45-0.46C196.27,79.8,196.49,80,196.49,80.26 M197.9,81.17
	c0,0.26-0.21,0.47-0.47,0.47c-0.25,0-0.45-0.21-0.45-0.47c0-0.24,0.2-0.44,0.45-0.44C197.69,80.73,197.9,80.93,197.9,81.17
	 M199.54,81.59c0,0.25-0.2,0.45-0.45,0.45c-0.26,0-0.47-0.2-0.47-0.45c0-0.25,0.21-0.46,0.47-0.46
	C199.33,81.14,199.54,81.34,199.54,81.59 M201.22,81.45c0,0.26-0.21,0.46-0.46,0.46c-0.26,0-0.46-0.19-0.46-0.46
	c0-0.25,0.19-0.44,0.46-0.44C201.01,81,201.22,81.19,201.22,81.45 M202.76,80.77c0,0.25-0.21,0.45-0.47,0.45
	c-0.24,0-0.44-0.19-0.44-0.45c0-0.26,0.2-0.46,0.44-0.46C202.56,80.32,202.76,80.51,202.76,80.77 M204,79.62
	c0,0.26-0.19,0.45-0.46,0.45c-0.25,0-0.45-0.19-0.45-0.45c0-0.25,0.2-0.45,0.45-0.45C203.81,79.18,204,79.37,204,79.62 M204.8,78.14
	c0,0.26-0.19,0.47-0.45,0.47c-0.25,0-0.45-0.21-0.45-0.47c0-0.24,0.19-0.45,0.45-0.45C204.61,77.69,204.8,77.9,204.8,78.14
	 M205.09,76.47c0,0.25-0.21,0.47-0.46,0.47c-0.26,0-0.47-0.21-0.47-0.47c0-0.24,0.21-0.46,0.47-0.46
	C204.89,76.01,205.09,76.23,205.09,76.47 M204.8,74.8c0,0.26-0.2,0.46-0.45,0.46c-0.26,0-0.46-0.19-0.46-0.46
	c0-0.25,0.19-0.45,0.46-0.45C204.6,74.35,204.8,74.55,204.8,74.8 M204,73.31c0,0.25-0.21,0.47-0.47,0.47
	c-0.24,0-0.44-0.22-0.44-0.47c0-0.24,0.2-0.44,0.44-0.44C203.79,72.87,204,73.07,204,73.31 M202.75,72.17
	c0,0.25-0.21,0.47-0.47,0.47c-0.24,0-0.44-0.22-0.44-0.47c0-0.24,0.2-0.44,0.44-0.44C202.55,71.73,202.75,71.93,202.75,72.17
	 M201.21,71.5c0,0.25-0.21,0.45-0.46,0.45c-0.26,0-0.46-0.2-0.46-0.45c0-0.25,0.19-0.45,0.46-0.45
	C201,71.06,201.21,71.25,201.21,71.5 M199.52,71.37c0,0.24-0.2,0.45-0.45,0.45c-0.25,0-0.46-0.21-0.46-0.45
	c0-0.25,0.21-0.46,0.46-0.46C199.32,70.91,199.52,71.12,199.52,71.37"/>
<polyline points="192.64,96.64 192.64,97.47 199.6,97.47 199.6,96.64 193.58,96.64 193.58,94.87 199.4,94.87 199.4,91.55 
	192.61,91.55 192.61,92.35 198.46,92.35 198.46,94.08 192.64,94.08 192.64,96.64 "/>
<path class="st0" d="M212.25,98.27v-27c0-0.74,0.07-1.47,0.22-2.19c0.14-0.72,0.36-1.43,0.64-2.11c0.28-0.68,0.63-1.33,1.04-1.94
	s0.88-1.18,1.4-1.7c0.52-0.52,1.09-0.99,1.7-1.4c0.62-0.41,1.26-0.76,1.95-1.04c0.68-0.28,1.39-0.5,2.11-0.64
	c0.73-0.14,1.46-0.22,2.19-0.22h21c0.74,0,1.47,0.07,2.2,0.22c0.72,0.14,1.43,0.36,2.11,0.64c0.68,0.28,1.33,0.63,1.94,1.04
	c0.61,0.41,1.18,0.88,1.71,1.4c0.52,0.52,0.99,1.09,1.4,1.7s0.76,1.26,1.04,1.94c0.28,0.68,0.5,1.39,0.64,2.11
	c0.14,0.72,0.22,1.46,0.22,2.19v27c0,0.74-0.07,1.47-0.22,2.19c-0.14,0.73-0.36,1.43-0.64,2.11c-0.28,0.68-0.63,1.33-1.04,1.94
	c-0.41,0.61-0.88,1.18-1.4,1.71c-0.52,0.52-1.09,0.99-1.71,1.4c-0.61,0.41-1.26,0.76-1.94,1.04c-0.68,0.28-1.39,0.5-2.11,0.64
	c-0.73,0.14-1.46,0.22-2.2,0.22h-21c-0.74,0-1.47-0.07-2.19-0.22c-0.72-0.14-1.43-0.36-2.11-0.64c-0.68-0.28-1.33-0.63-1.95-1.04
	c-0.61-0.41-1.18-0.88-1.7-1.4c-0.52-0.52-0.99-1.09-1.4-1.71c-0.41-0.61-0.76-1.26-1.04-1.94c-0.28-0.68-0.5-1.38-0.64-2.11
	C212.32,99.74,212.25,99.01,212.25,98.27"/>
<path class="st1" d="M220.91,81.19c1.22,0,2.28-0.47,2.89-1.07v-4.01h-3.17v1.45h1.57v1.75c-0.24,0.22-0.69,0.34-1.1,0.34
	c-1.75,0-2.63-1.16-2.63-3.1c0-1.91,1.01-3.06,2.5-3.06c0.79,0,1.29,0.32,1.74,0.74l0.95-1.13c-0.57-0.59-1.46-1.14-2.75-1.14
	c-2.36,0-4.26,1.71-4.26,4.64C216.65,79.59,218.5,81.19,220.91,81.19"/>
<path d="M246.49,75.7c1,0,1.74,0.71,1.74,1.69c0,0.98-0.74,1.69-1.74,1.69s-1.74-0.71-1.74-1.69
	C244.75,76.41,245.5,75.7,246.49,75.7 M246.49,74.92c-1.56,0-2.7,1.02-2.7,2.47c0,1.45,1.14,2.47,2.7,2.47
	c1.55,0,2.69-1.02,2.69-2.47C249.18,75.94,248.04,74.92,246.49,74.92 M243.61,73.3v0.82h5.82V73.3H243.61"/>
<path d="M246.04,90.91v1.45h-3.11v0.83h7.2v-0.83h-3.09v-1.45H246.04 M246.53,94.8c0.95,0,1.66,0.47,1.66,1.14
	c0,0.69-0.71,1.15-1.66,1.15c-0.94,0-1.65-0.47-1.65-1.15C244.88,95.27,245.59,94.8,246.53,94.8 M246.53,93.96
	c-1.54,0-2.67,0.83-2.67,1.98c0,1.17,1.13,1.99,2.67,1.99c1.55,0,2.67-0.83,2.67-1.99C249.21,94.79,248.08,93.96,246.53,93.96"/>
<path class="st0" d="M258.75,98.27v-27c0-0.74,0.07-1.47,0.22-2.19c0.14-0.72,0.36-1.43,0.64-2.11c0.28-0.68,0.63-1.33,1.04-1.94
	c0.41-0.61,0.88-1.18,1.4-1.7c0.52-0.52,1.09-0.99,1.7-1.4c0.61-0.41,1.26-0.76,1.95-1.04c0.68-0.28,1.39-0.5,2.11-0.64
	c0.72-0.14,1.45-0.22,2.19-0.22h21c0.74,0,1.47,0.07,2.2,0.22c0.72,0.14,1.43,0.36,2.11,0.64c0.68,0.28,1.33,0.63,1.95,1.04
	c0.61,0.41,1.18,0.88,1.71,1.4c0.52,0.52,0.99,1.09,1.4,1.7s0.76,1.26,1.04,1.94c0.28,0.68,0.5,1.39,0.64,2.11
	c0.14,0.72,0.22,1.46,0.22,2.19v27c0,0.74-0.07,1.47-0.22,2.19c-0.14,0.73-0.36,1.43-0.64,2.11c-0.28,0.68-0.63,1.33-1.04,1.94
	c-0.41,0.61-0.88,1.18-1.4,1.71c-0.52,0.52-1.09,0.99-1.71,1.4c-0.61,0.41-1.26,0.76-1.95,1.04c-0.68,0.28-1.39,0.5-2.11,0.64
	c-0.73,0.14-1.46,0.22-2.2,0.22h-21c-0.74,0-1.47-0.07-2.19-0.22c-0.73-0.14-1.43-0.36-2.11-0.64c-0.68-0.28-1.33-0.63-1.95-1.04
	c-0.61-0.41-1.18-0.88-1.7-1.4c-0.52-0.52-0.99-1.09-1.4-1.71c-0.41-0.61-0.76-1.26-1.04-1.94c-0.28-0.68-0.5-1.38-0.64-2.11
	C258.82,99.74,258.75,99.01,258.75,98.27"/>
<polyline class="st1" points="263.59,81.03 265.37,81.03 265.37,77.19 268.73,77.19 268.73,81.03 270.49,81.03 270.49,72.14 
	268.73,72.14 268.73,75.65 265.37,75.65 265.37,72.14 263.59,72.14 263.59,81.03 "/>
<path d="M285,76.85c-0.48,0-0.86,0.4-0.86,0.86c0,0.48,0.38,0.88,0.86,0.88s0.86-0.4,0.86-0.88C285.86,77.25,285.48,76.85,285,76.85
	 M285,74.35c-0.48,0-0.86,0.4-0.86,0.88c0,0.47,0.38,0.86,0.86,0.86s0.86-0.4,0.86-0.86C285.86,74.74,285.48,74.35,285,74.35"/>
<path d="M290.89,71.79c0,0.25-0.2,0.45-0.46,0.45c-0.26,0-0.47-0.19-0.47-0.45c0-0.26,0.2-0.46,0.47-0.46
	C290.69,71.33,290.89,71.52,290.89,71.79 M289.48,72.7c0,0.26-0.21,0.47-0.46,0.47c-0.26,0-0.45-0.21-0.45-0.47
	c0-0.24,0.19-0.44,0.45-0.44C289.27,72.26,289.48,72.46,289.48,72.7 M288.45,74.03c0,0.26-0.21,0.47-0.46,0.47
	c-0.26,0-0.47-0.21-0.47-0.47c0-0.24,0.21-0.45,0.47-0.45C288.24,73.59,288.45,73.79,288.45,74.03 M287.9,75.64
	c0,0.25-0.21,0.46-0.47,0.46c-0.25,0-0.45-0.21-0.45-0.46c0-0.25,0.2-0.46,0.45-0.46C287.69,75.18,287.9,75.39,287.9,75.64
	 M287.9,77.33c0,0.25-0.21,0.46-0.47,0.46c-0.25,0-0.45-0.21-0.45-0.46c0-0.25,0.2-0.45,0.45-0.45
	C287.69,76.88,287.9,77.08,287.9,77.33 M288.45,78.91c0,0.26-0.21,0.46-0.46,0.46c-0.25,0-0.46-0.19-0.46-0.46
	c0-0.25,0.21-0.44,0.46-0.44C288.24,78.47,288.45,78.66,288.45,78.91 M289.49,80.26c0,0.25-0.22,0.44-0.46,0.44
	c-0.26,0-0.45-0.19-0.45-0.44c0-0.26,0.19-0.46,0.45-0.46C289.27,79.8,289.49,80,289.49,80.26 M290.9,81.17
	c0,0.26-0.21,0.47-0.47,0.47c-0.25,0-0.45-0.21-0.45-0.47c0-0.24,0.2-0.44,0.45-0.44C290.69,80.73,290.9,80.93,290.9,81.17
	 M292.54,81.59c0,0.25-0.2,0.45-0.45,0.45c-0.26,0-0.47-0.2-0.47-0.45c0-0.25,0.21-0.46,0.47-0.46
	C292.33,81.14,292.54,81.34,292.54,81.59 M294.22,81.45c0,0.26-0.21,0.46-0.46,0.46c-0.26,0-0.46-0.19-0.46-0.46
	c0-0.25,0.19-0.44,0.46-0.44C294.01,81,294.22,81.19,294.22,81.45 M295.76,80.77c0,0.25-0.21,0.45-0.47,0.45
	c-0.24,0-0.44-0.19-0.44-0.45c0-0.26,0.2-0.46,0.44-0.46C295.56,80.32,295.76,80.51,295.76,80.77 M297,79.62
	c0,0.26-0.19,0.45-0.46,0.45c-0.25,0-0.45-0.19-0.45-0.45c0-0.25,0.2-0.45,0.45-0.45C296.81,79.18,297,79.37,297,79.62 M297.8,78.14
	c0,0.26-0.19,0.47-0.45,0.47c-0.25,0-0.45-0.21-0.45-0.47c0-0.24,0.19-0.45,0.45-0.45C297.61,77.69,297.8,77.9,297.8,78.14
	 M298.09,76.47c0,0.25-0.21,0.47-0.46,0.47c-0.26,0-0.47-0.21-0.47-0.47c0-0.24,0.21-0.46,0.47-0.46
	C297.89,76.01,298.09,76.23,298.09,76.47 M297.8,74.8c0,0.26-0.2,0.46-0.45,0.46c-0.26,0-0.46-0.19-0.46-0.46
	c0-0.25,0.19-0.45,0.46-0.45C297.6,74.35,297.8,74.55,297.8,74.8 M297,73.31c0,0.25-0.21,0.47-0.47,0.47
	c-0.24,0-0.44-0.22-0.44-0.47c0-0.24,0.2-0.44,0.44-0.44C296.79,72.87,297,73.07,297,73.31 M295.75,72.17
	c0,0.25-0.21,0.47-0.47,0.47c-0.24,0-0.44-0.22-0.44-0.47c0-0.24,0.2-0.44,0.44-0.44C295.55,71.73,295.75,71.93,295.75,72.17
	 M294.21,71.5c0,0.25-0.21,0.45-0.46,0.45c-0.26,0-0.46-0.2-0.46-0.45c0-0.25,0.19-0.45,0.46-0.45
	C294,71.06,294.21,71.25,294.21,71.5 M292.52,71.37c0,0.24-0.2,0.45-0.45,0.45c-0.25,0-0.46-0.21-0.46-0.45
	c0-0.25,0.21-0.46,0.46-0.46C292.32,70.91,292.52,71.12,292.52,71.37"/>
<polyline points="288.5,91.35 288.5,95.87 284.12,95.87 284.12,96.68 293.89,96.68 293.89,95.87 289.49,95.87 289.49,91.35 
	288.5,91.35 "/>
<path class="st0" d="M305.25,98.27v-27c0-0.74,0.07-1.47,0.22-2.19c0.14-0.72,0.36-1.43,0.64-2.11c0.28-0.68,0.63-1.33,1.04-1.94
	c0.41-0.61,0.88-1.18,1.4-1.7c0.52-0.52,1.09-0.99,1.7-1.4c0.61-0.41,1.26-0.76,1.95-1.04c0.68-0.28,1.39-0.5,2.11-0.64
	c0.72-0.14,1.45-0.22,2.19-0.22h21c0.74,0,1.47,0.07,2.2,0.22c0.72,0.14,1.43,0.36,2.11,0.64c0.68,0.28,1.33,0.63,1.95,1.04
	c0.61,0.41,1.18,0.88,1.71,1.4c0.52,0.52,0.99,1.09,1.4,1.7s0.76,1.26,1.04,1.94c0.28,0.68,0.5,1.39,0.64,2.11
	c0.14,0.72,0.22,1.46,0.22,2.19v27c0,0.74-0.07,1.47-0.22,2.19c-0.14,0.73-0.36,1.43-0.64,2.11c-0.28,0.68-0.63,1.33-1.04,1.94
	c-0.41,0.61-0.88,1.18-1.4,1.71c-0.52,0.52-1.09,0.99-1.7,1.4c-0.62,0.41-1.26,0.76-1.95,1.04c-0.68,0.28-1.39,0.5-2.11,0.64
	c-0.73,0.14-1.46,0.22-2.2,0.22h-21c-0.74,0-1.47-0.07-2.19-0.22c-0.73-0.14-1.43-0.36-2.11-0.64c-0.68-0.28-1.33-0.63-1.95-1.04
	c-0.61-0.41-1.18-0.88-1.7-1.4c-0.52-0.52-0.99-1.09-1.4-1.71c-0.41-0.61-0.76-1.26-1.04-1.94c-0.28-0.68-0.5-1.38-0.64-2.11
	C305.32,99.74,305.25,99.01,305.25,98.27"/>
<path class="st1" d="M312.02,81.19c1.91,0,2.75-1.37,2.75-3.03v-6.02H313v5.88c0,1.22-0.41,1.64-1.19,1.64
	c-0.5,0-0.98-0.28-1.32-0.92l-1.21,0.9C309.86,80.68,310.74,81.19,312.02,81.19"/>
<polyline class="st2" points="331.53,83.07 333.91,83.07 333.91,82.44 332.35,82.44 332.35,72.16 333.91,72.16 333.91,71.52 
	331.53,71.52 331.53,83.07 "/>
<polyline class="st2" points="335.53,81.03 336.63,81.03 336.63,77.08 339.99,77.08 339.99,76.14 336.63,76.14 336.63,73.17 
	340.59,73.17 340.59,72.23 335.53,72.23 335.53,81.03 "/>
<polyline class="st2" points="341.35,83.07 343.73,83.07 343.73,71.52 341.35,71.52 341.35,72.16 342.91,72.16 342.91,82.44 
	341.35,82.44 341.35,83.07 "/>
<polyline points="333.82,93.56 333.82,94.4 336.37,94.4 336.37,99.93 337.36,99.93 337.36,89.28 336.37,89.28 336.37,93.56 
	333.82,93.56 "/>
<path class="st0" d="M351.75,98.27v-27c0-0.74,0.07-1.47,0.22-2.19c0.14-0.72,0.36-1.43,0.64-2.11c0.28-0.68,0.63-1.33,1.04-1.94
	s0.88-1.18,1.4-1.7c0.52-0.52,1.09-0.99,1.7-1.4c0.62-0.41,1.26-0.76,1.95-1.04c0.68-0.28,1.39-0.5,2.11-0.64
	c0.72-0.14,1.45-0.22,2.19-0.22h21c0.74,0,1.47,0.07,2.2,0.22c0.72,0.14,1.43,0.36,2.11,0.64c0.68,0.28,1.33,0.63,1.95,1.04
	c0.61,0.41,1.18,0.88,1.71,1.4c0.52,0.52,0.99,1.09,1.4,1.7s0.76,1.26,1.04,1.94c0.28,0.68,0.5,1.39,0.64,2.11
	c0.14,0.72,0.22,1.46,0.22,2.19v27c0,0.74-0.07,1.47-0.22,2.19c-0.14,0.73-0.36,1.43-0.64,2.11c-0.28,0.68-0.63,1.33-1.04,1.94
	c-0.41,0.61-0.88,1.18-1.4,1.71c-0.52,0.52-1.09,0.99-1.71,1.4c-0.61,0.41-1.26,0.76-1.95,1.04c-0.68,0.28-1.39,0.5-2.11,0.64
	c-0.73,0.14-1.46,0.22-2.2,0.22h-21c-0.74,0-1.47-0.07-2.19-0.22c-0.73-0.14-1.43-0.36-2.11-0.64c-0.68-0.28-1.33-0.63-1.95-1.04
	c-0.61-0.41-1.18-0.88-1.7-1.4c-0.52-0.52-0.99-1.09-1.4-1.71c-0.41-0.61-0.76-1.26-1.04-1.94c-0.28-0.68-0.5-1.38-0.64-2.11
	C351.82,99.74,351.75,99.01,351.75,98.27"/>
<path class="st0" d="M398.25,98.27v-27c0-0.74,0.07-1.47,0.22-2.19c0.14-0.72,0.36-1.43,0.64-2.11c0.28-0.68,0.63-1.33,1.04-1.94
	s0.88-1.18,1.4-1.7c0.52-0.52,1.09-0.99,1.7-1.4c0.61-0.41,1.26-0.76,1.95-1.04c0.68-0.28,1.39-0.5,2.11-0.64
	c0.73-0.14,1.46-0.22,2.2-0.22h21c0.74,0,1.47,0.07,2.2,0.22c0.72,0.14,1.43,0.36,2.11,0.64c0.68,0.28,1.33,0.63,1.95,1.04
	c0.61,0.41,1.18,0.88,1.71,1.4c0.52,0.52,0.99,1.09,1.4,1.7s0.76,1.26,1.04,1.94c0.28,0.68,0.5,1.39,0.64,2.11
	c0.14,0.72,0.22,1.46,0.22,2.19v27c0,0.74-0.07,1.47-0.22,2.19c-0.14,0.73-0.36,1.43-0.64,2.11c-0.28,0.68-0.63,1.33-1.04,1.94
	c-0.41,0.61-0.88,1.18-1.4,1.71c-0.52,0.52-1.09,0.99-1.71,1.4c-0.61,0.41-1.26,0.76-1.95,1.04c-0.68,0.28-1.39,0.5-2.11,0.64
	c-0.73,0.14-1.46,0.22-2.2,0.22h-21c-0.74,0-1.47-0.07-2.2-0.22c-0.72-0.14-1.43-0.36-2.11-0.64c-0.68-0.28-1.33-0.63-1.95-1.04
	c-0.61-0.41-1.18-0.88-1.7-1.4c-0.52-0.52-0.99-1.09-1.4-1.71c-0.41-0.61-0.76-1.26-1.04-1.94c-0.28-0.68-0.5-1.38-0.64-2.11
	C398.32,99.74,398.25,99.01,398.25,98.27"/>
<polyline class="st1" points="356.59,81.03 358.37,81.03 358.37,78.53 359.53,77.03 361.84,81.03 363.78,81.03 360.59,75.64 
	363.3,72.14 361.34,72.14 358.4,76 358.37,76 358.37,72.14 356.59,72.14 356.59,81.03 "/>
<path d="M385.29,76.6c0.01,0.4,0.33,0.78,0.77,0.78c0.44,0,0.77-0.38,0.77-0.78c0-0.4-0.33-0.78-0.77-0.78
	C385.62,75.82,385.29,76.2,385.29,76.6"/>
<polyline points="385.15,89.29 385.15,99.95 386.14,99.95 386.14,94.47 388.66,94.47 388.66,93.64 386.14,93.64 386.14,89.29 
	385.15,89.29 "/>
<polyline class="st1" points="403.09,81.03 408.48,81.03 408.48,79.54 404.87,79.54 404.87,72.14 403.09,72.14 403.09,81.03 "/>
<rect x="432.03" y="89.28" width="1" height="10.65"/>
<path class="st0" d="M49.5,150.77v-27c0-0.74,0.07-1.47,0.22-2.19c0.14-0.72,0.36-1.43,0.64-2.11c0.28-0.68,0.63-1.33,1.04-1.94
	s0.88-1.18,1.4-1.71c0.52-0.52,1.09-0.99,1.7-1.4c0.61-0.41,1.26-0.76,1.95-1.04c0.68-0.28,1.39-0.5,2.11-0.64
	c0.73-0.14,1.46-0.22,2.19-0.22h21c0.74,0,1.47,0.07,2.2,0.22c0.72,0.14,1.43,0.36,2.11,0.64c0.68,0.28,1.33,0.63,1.94,1.04
	c0.61,0.41,1.18,0.88,1.71,1.4c0.52,0.52,0.99,1.09,1.4,1.71s0.76,1.26,1.04,1.94c0.28,0.68,0.5,1.39,0.64,2.11
	c0.14,0.72,0.22,1.46,0.22,2.19v27c0,0.74-0.07,1.47-0.22,2.19c-0.14,0.73-0.36,1.43-0.64,2.11c-0.28,0.68-0.63,1.33-1.04,1.95
	s-0.88,1.18-1.4,1.71c-0.52,0.52-1.09,0.99-1.71,1.4c-0.61,0.41-1.26,0.76-1.94,1.04c-0.68,0.28-1.39,0.5-2.11,0.64
	c-0.73,0.14-1.46,0.22-2.2,0.22h-21c-0.74,0-1.47-0.07-2.19-0.22c-0.72-0.14-1.43-0.36-2.11-0.64c-0.68-0.28-1.33-0.63-1.95-1.04
	c-0.61-0.41-1.18-0.88-1.7-1.4c-0.52-0.52-0.99-1.09-1.4-1.71s-0.76-1.26-1.04-1.95c-0.28-0.68-0.5-1.38-0.64-2.11
	C49.57,152.24,49.5,151.51,49.5,150.77"/>
<path class="st0" d="M96,150.77v-27c0-0.74,0.07-1.47,0.22-2.19c0.14-0.72,0.36-1.43,0.64-2.11c0.28-0.68,0.63-1.33,1.04-1.94
	s0.88-1.18,1.4-1.71c0.52-0.52,1.09-0.99,1.7-1.4c0.61-0.41,1.26-0.76,1.95-1.04c0.68-0.28,1.39-0.5,2.11-0.64
	c0.73-0.14,1.46-0.22,2.19-0.22h21c0.74,0,1.47,0.07,2.19,0.22c0.73,0.14,1.43,0.36,2.11,0.64c0.68,0.28,1.33,0.63,1.94,1.04
	c0.61,0.41,1.18,0.88,1.71,1.4c0.52,0.52,0.99,1.09,1.4,1.71s0.76,1.26,1.04,1.94c0.28,0.68,0.5,1.39,0.64,2.11
	c0.14,0.72,0.22,1.46,0.22,2.19v27c0,0.74-0.07,1.47-0.22,2.19c-0.14,0.73-0.36,1.43-0.64,2.11c-0.28,0.68-0.63,1.33-1.04,1.95
	s-0.88,1.18-1.4,1.71c-0.52,0.52-1.09,0.99-1.71,1.4c-0.61,0.41-1.26,0.76-1.94,1.04c-0.68,0.28-1.39,0.5-2.11,0.64
	c-0.72,0.14-1.45,0.22-2.19,0.22h-21c-0.74,0-1.47-0.07-2.19-0.22c-0.72-0.14-1.43-0.36-2.11-0.64c-0.68-0.28-1.33-0.63-1.95-1.04
	c-0.61-0.41-1.18-0.88-1.7-1.4c-0.52-0.52-0.99-1.09-1.4-1.71s-0.76-1.26-1.04-1.95c-0.28-0.68-0.5-1.38-0.64-2.11
	C96.07,152.24,96,151.51,96,150.77"/>
<polyline class="st1" points="53.77,133.52 60.13,133.52 60.13,132.03 55.95,132.03 60.09,125.69 60.09,124.63 54.16,124.63 
	54.16,126.12 57.91,126.12 53.77,132.45 53.77,133.52 "/>
<path d="M83.19,124.06v0.62c0,1.54-1.9,2.83-3.9,3.12l0.43,0.82c1.73-0.3,3.37-1.25,4.05-2.6c0.52,0.89,1.55,1.52,2.88,1.8
	l0.43-0.79c-1.71-0.3-2.84-1.22-2.84-2.34v-0.62H83.19"/>
<polyline points="80.48,144.03 80.48,144.85 86.16,144.85 86.16,146.63 80.24,146.91 80.37,147.81 86.16,147.44 86.16,149.98 
	87.16,149.98 87.16,144.03 80.48,144.03 "/>
<path class="st1" d="M99.93,133.52h1.87l0.95-1.97c0.22-0.45,0.42-0.92,0.65-1.46h0.05c0.25,0.54,0.48,1.01,0.69,1.46l1,1.97h1.97
	l-2.5-4.5l2.34-4.39h-1.87l-0.84,1.85c-0.19,0.41-0.38,0.84-0.6,1.39h-0.05c-0.26-0.55-0.45-0.98-0.66-1.39l-0.89-1.85h-1.98
	l2.35,4.32L99.93,133.52"/>
<path d="M129.69,124.06v0.62c0,1.05-1.26,2.12-2.92,2.47l0.42,0.81c1.34-0.31,2.42-1.05,2.96-1.97c0.66,1.37,2.31,2.33,4.05,2.63
	l0.42-0.82c-1.99-0.29-3.9-1.59-3.9-3.12v-0.62H129.69"/>
<polyline points="126.92,149.07 126.92,149.88 133.75,149.88 133.75,149.07 127.9,149.07 127.9,147.36 133.57,147.36 133.57,146.55 
	127.9,146.55 127.9,144.95 133.65,144.95 133.65,144.14 126.92,144.14 126.92,149.07 "/>
<path class="st0" d="M142.5,150.77v-27c0-0.74,0.07-1.47,0.22-2.19c0.14-0.72,0.36-1.43,0.64-2.11c0.28-0.68,0.63-1.33,1.04-1.94
	s0.88-1.18,1.4-1.71c0.52-0.52,1.09-0.99,1.7-1.4c0.61-0.41,1.26-0.76,1.95-1.04c0.68-0.28,1.39-0.5,2.11-0.64
	c0.73-0.14,1.46-0.22,2.19-0.22h21c0.74,0,1.47,0.07,2.19,0.22c0.73,0.14,1.43,0.36,2.11,0.64c0.68,0.28,1.33,0.63,1.94,1.04
	c0.61,0.41,1.18,0.88,1.71,1.4c0.52,0.52,0.99,1.09,1.4,1.71s0.76,1.26,1.04,1.94c0.28,0.68,0.5,1.39,0.64,2.11
	c0.14,0.72,0.22,1.46,0.22,2.19v27c0,0.74-0.07,1.47-0.22,2.19c-0.14,0.73-0.36,1.43-0.64,2.11c-0.28,0.68-0.63,1.33-1.04,1.95
	s-0.88,1.18-1.4,1.71c-0.52,0.52-1.09,0.99-1.71,1.4c-0.61,0.41-1.26,0.76-1.94,1.04c-0.68,0.28-1.39,0.5-2.11,0.64
	c-0.72,0.14-1.45,0.22-2.19,0.22h-21c-0.74,0-1.47-0.07-2.19-0.22c-0.72-0.14-1.43-0.36-2.11-0.64c-0.68-0.28-1.33-0.63-1.95-1.04
	c-0.61-0.41-1.18-0.88-1.7-1.4c-0.52-0.52-0.99-1.09-1.4-1.71s-0.76-1.26-1.04-1.95c-0.28-0.68-0.5-1.38-0.64-2.11
	C142.57,152.24,142.5,151.51,142.5,150.77"/>
<path class="st1" d="M150.96,133.69c1.16,0,2.11-0.45,2.84-1.31l-0.95-1.1c-0.47,0.52-1.06,0.88-1.83,0.88c-1.4,0-2.3-1.16-2.3-3.1
	c0-1.91,1-3.06,2.34-3.06c0.67,0,1.19,0.31,1.65,0.74l0.92-1.13c-0.58-0.6-1.46-1.14-2.6-1.14c-2.24,0-4.13,1.71-4.13,4.64
	C146.9,132.08,148.72,133.69,150.96,133.69"/>
<path d="M176.91,124.59v0.81h1.37v0.49c0,0.86-0.71,1.97-1.99,2.42l0.48,0.74c1.05-0.4,1.76-1.21,2.07-2.07
	c0.29,0.5,0.81,0.96,1.55,1.19l0.44-0.76c-0.98-0.28-1.56-0.97-1.56-1.52v-0.49H181v-0.81H176.91 M172.39,124.59v0.81h1.73v0.49
	c0,0.79-0.73,1.87-2.05,2.3l0.44,0.74c1.12-0.37,1.85-1.17,2.17-2.03c0.28,0.46,0.74,0.86,1.45,1.08l0.43-0.74
	c-0.94-0.26-1.46-0.9-1.46-1.36v-0.49h1.38v-0.81H172.39"/>
<path d="M176.25,143.48v1.57h-2.88v0.83h2.79v0.31c0,1.62-1.24,2.82-3.08,3.24l0.48,0.78c1.5-0.4,2.67-1.26,3.19-2.55
	c0.5,1.28,1.69,2.15,3.19,2.55l0.47-0.78c-1.84-0.42-3.08-1.62-3.08-3.24v-0.31h2.79v-0.83h-2.87v-1.57H176.25"/>
<path class="st0" d="M189,150.77v-27c0-0.74,0.07-1.47,0.22-2.19c0.14-0.72,0.36-1.43,0.64-2.11c0.28-0.68,0.63-1.33,1.04-1.94
	s0.88-1.18,1.4-1.71c0.52-0.52,1.09-0.99,1.7-1.4c0.61-0.41,1.26-0.76,1.95-1.04c0.68-0.28,1.39-0.5,2.11-0.64
	c0.72-0.14,1.46-0.22,2.19-0.22h21c0.74,0,1.47,0.07,2.19,0.22c0.73,0.14,1.43,0.36,2.11,0.64c0.68,0.28,1.33,0.63,1.94,1.04
	c0.61,0.41,1.18,0.88,1.71,1.4c0.52,0.52,0.99,1.09,1.4,1.71s0.76,1.26,1.04,1.94c0.28,0.68,0.5,1.39,0.64,2.11
	c0.14,0.72,0.22,1.46,0.22,2.19v27c0,0.74-0.07,1.47-0.22,2.19c-0.14,0.73-0.36,1.43-0.64,2.11c-0.28,0.68-0.63,1.33-1.04,1.95
	s-0.88,1.18-1.4,1.71c-0.52,0.52-1.09,0.99-1.71,1.4c-0.61,0.41-1.26,0.76-1.94,1.04c-0.68,0.28-1.39,0.5-2.11,0.64
	c-0.72,0.14-1.46,0.22-2.19,0.22h-21c-0.74,0-1.47-0.07-2.19-0.22c-0.72-0.14-1.43-0.36-2.11-0.64c-0.68-0.28-1.33-0.63-1.95-1.04
	c-0.61-0.41-1.18-0.88-1.7-1.4c-0.52-0.52-0.99-1.09-1.4-1.71s-0.76-1.26-1.04-1.95c-0.28-0.68-0.5-1.38-0.64-2.11
	C189.07,152.24,189,151.51,189,150.77"/>
<path class="st1" d="M195.4,133.52h2.12l2.71-8.89h-1.8l-1.15,4.33c-0.28,0.98-0.47,1.87-0.76,2.86h-0.06
	c-0.28-1-0.47-1.88-0.74-2.86l-1.17-4.33h-1.87L195.4,133.52"/>
<path d="M219.22,124.46v0.8h3.42v0.07c0,1.15-1.38,1.98-3.13,2.23l0.42,0.79c1.46-0.25,2.7-0.88,3.25-1.85
	c0.66,1.24,2.31,2.08,4.03,2.31l0.4-0.79c-1.94-0.24-3.85-1.36-3.85-2.7v-0.07h3.41v-0.8H219.22"/>
<path d="M222.18,144.98h2.21v4.15h-2.21V144.98 M219.62,149.13v0.81h7.32v-0.81h-1.56v-4.15h1.39v-0.82h-7v0.82h1.4v4.15H219.62"/>
<path class="st0" d="M235.5,150.77v-27c0-0.74,0.07-1.47,0.22-2.19c0.14-0.72,0.36-1.43,0.64-2.11c0.28-0.68,0.63-1.33,1.04-1.94
	s0.88-1.18,1.4-1.71c0.52-0.52,1.09-0.99,1.7-1.4c0.62-0.41,1.26-0.76,1.95-1.04c0.68-0.28,1.39-0.5,2.11-0.64
	c0.73-0.14,1.46-0.22,2.19-0.22h21c0.74,0,1.47,0.07,2.19,0.22c0.73,0.14,1.43,0.36,2.11,0.64c0.68,0.28,1.33,0.63,1.95,1.04
	c0.61,0.41,1.18,0.88,1.71,1.4c0.52,0.52,0.99,1.09,1.4,1.71s0.76,1.26,1.04,1.94c0.28,0.68,0.5,1.39,0.64,2.11
	c0.14,0.72,0.22,1.46,0.22,2.19v27c0,0.74-0.07,1.47-0.22,2.19c-0.14,0.73-0.36,1.43-0.64,2.11c-0.28,0.68-0.63,1.33-1.04,1.95
	s-0.88,1.18-1.4,1.71c-0.52,0.52-1.09,0.99-1.71,1.4c-0.61,0.41-1.26,0.76-1.95,1.04c-0.68,0.28-1.39,0.5-2.11,0.64
	c-0.72,0.14-1.45,0.22-2.19,0.22h-21c-0.74,0-1.47-0.07-2.19-0.22c-0.72-0.14-1.43-0.36-2.11-0.64c-0.68-0.28-1.33-0.63-1.95-1.04
	c-0.61-0.41-1.18-0.88-1.7-1.4c-0.52-0.52-0.99-1.09-1.4-1.71s-0.76-1.26-1.04-1.95c-0.28-0.68-0.5-1.38-0.64-2.11
	C235.57,152.24,235.5,151.51,235.5,150.77"/>
<path class="st1" d="M242.12,132.15v-2.59h1.24c1.22,0,1.86,0.37,1.86,1.24c0,0.93-0.66,1.36-1.86,1.36H242.12 M242.12,128.25V126
	h1.05c1.07,0,1.6,0.31,1.6,1.09c0,0.71-0.48,1.16-1.61,1.16H242.12 M240.34,133.52h3.17c1.96,0,3.43-0.83,3.43-2.62
	c0-1.19-0.7-1.87-1.66-2.1v-0.05c0.76-0.28,1.21-1.1,1.21-1.93c0-1.66-1.39-2.19-3.22-2.19h-2.94V133.52"/>
<path d="M269.19,124.16v1.02h-3.45v0.81h3.45c-0.07,1.15-1.84,2.1-3.82,2.28l0.34,0.77c1.75-0.18,3.35-0.9,4.02-1.97
	c0.53,0.71,1.58,1.2,2.95,1.39l0.36-0.77c-1.74-0.2-2.8-0.88-2.86-1.7h3.47v-0.81h-3.47v-1.02H269.19"/>
<polyline points="264.82,145.26 264.82,146.08 267.4,146.08 267.4,150.75 268.4,150.75 268.4,146.08 270.97,146.08 270.97,150.75 
	271.96,150.75 271.96,146.08 274.59,146.08 274.59,145.26 264.82,145.26 "/>
<path class="st0" d="M282,150.77v-27c0-0.74,0.07-1.47,0.22-2.19c0.14-0.72,0.36-1.43,0.64-2.11c0.28-0.68,0.63-1.33,1.04-1.94
	c0.41-0.61,0.88-1.18,1.4-1.71c0.52-0.52,1.09-0.99,1.7-1.4c0.61-0.41,1.26-0.76,1.95-1.04c0.68-0.28,1.39-0.5,2.11-0.64
	c0.72-0.14,1.45-0.22,2.19-0.22h21c0.74,0,1.47,0.07,2.2,0.22c0.72,0.14,1.43,0.36,2.11,0.64c0.68,0.28,1.33,0.63,1.95,1.04
	c0.61,0.41,1.18,0.88,1.71,1.4c0.52,0.52,0.99,1.09,1.4,1.71s0.76,1.26,1.04,1.94c0.28,0.68,0.5,1.39,0.64,2.11
	c0.14,0.72,0.22,1.46,0.22,2.19v27c0,0.74-0.07,1.47-0.22,2.19c-0.14,0.73-0.36,1.43-0.64,2.11c-0.28,0.68-0.63,1.33-1.04,1.95
	s-0.88,1.18-1.4,1.71c-0.52,0.52-1.09,0.99-1.71,1.4c-0.61,0.41-1.26,0.76-1.95,1.04c-0.68,0.28-1.39,0.5-2.11,0.64
	c-0.73,0.14-1.46,0.22-2.2,0.22h-21c-0.74,0-1.47-0.07-2.19-0.22c-0.73-0.14-1.43-0.36-2.11-0.64c-0.68-0.28-1.33-0.63-1.95-1.04
	c-0.61-0.41-1.18-0.88-1.7-1.4c-0.52-0.52-0.99-1.09-1.4-1.71c-0.41-0.61-0.76-1.26-1.04-1.95c-0.28-0.68-0.5-1.38-0.64-2.11
	C282.07,152.24,282,151.51,282,150.77"/>
<path class="st1" d="M286.84,133.52h1.69v-3.56c0-1.02-0.16-2.14-0.23-3.09h0.06l0.9,1.91l2.56,4.75h1.81v-8.89h-1.68v3.55
	c0,1.01,0.14,2.19,0.24,3.11h-0.06l-0.9-1.92l-2.58-4.74h-1.81V133.52"/>
<path d="M315.69,124.16v1.02h-3.45v0.81h3.45c-0.06,0.86-1.16,1.53-2.87,1.75l0.36,0.77c1.37-0.19,2.45-0.7,2.98-1.44
	c0.68,1.06,2.27,1.76,4.01,1.96l0.33-0.78c-1.98-0.18-3.74-1.12-3.81-2.26h3.47v-0.81h-3.47v-1.02H315.69"/>
<polyline points="311.4,145.29 311.4,146.11 315.78,146.11 315.78,150.76 316.77,150.76 316.77,146.11 321.16,146.11 321.16,145.29 
	311.4,145.29 "/>
<path class="st0" d="M328.5,150.77v-27c0-0.74,0.07-1.47,0.22-2.19c0.14-0.72,0.36-1.43,0.64-2.11c0.28-0.68,0.63-1.33,1.04-1.94
	c0.41-0.61,0.88-1.18,1.4-1.71c0.52-0.52,1.09-0.99,1.7-1.4c0.61-0.41,1.26-0.76,1.95-1.04c0.68-0.28,1.39-0.5,2.11-0.64
	c0.72-0.14,1.45-0.22,2.19-0.22h21c0.74,0,1.47,0.07,2.2,0.22c0.72,0.14,1.43,0.36,2.11,0.64c0.68,0.28,1.33,0.63,1.95,1.04
	c0.61,0.41,1.18,0.88,1.71,1.4c0.52,0.52,0.99,1.09,1.4,1.71s0.76,1.26,1.04,1.94c0.28,0.68,0.5,1.39,0.64,2.11
	c0.14,0.72,0.22,1.46,0.22,2.19v27c0,0.74-0.07,1.47-0.22,2.19c-0.14,0.73-0.36,1.43-0.64,2.11c-0.28,0.68-0.63,1.33-1.04,1.95
	s-0.88,1.18-1.4,1.71c-0.52,0.52-1.09,0.99-1.71,1.4c-0.61,0.41-1.26,0.76-1.95,1.04c-0.68,0.28-1.39,0.5-2.11,0.64
	c-0.73,0.14-1.46,0.22-2.2,0.22h-21c-0.74,0-1.47-0.07-2.19-0.22c-0.73-0.14-1.43-0.36-2.11-0.64c-0.68-0.28-1.33-0.63-1.95-1.04
	c-0.61-0.41-1.18-0.88-1.7-1.4c-0.52-0.52-0.99-1.09-1.4-1.71c-0.41-0.61-0.76-1.26-1.04-1.95c-0.28-0.68-0.5-1.38-0.64-2.11
	C328.57,152.24,328.5,151.51,328.5,150.77"/>
<path class="st1" d="M333.34,133.52h1.6v-3.71c0-0.85-0.15-2.07-0.23-2.91h0.05l0.71,2.09l1.38,3.73h1.02l1.37-3.73l0.72-2.09h0.06
	c-0.1,0.84-0.23,2.07-0.23,2.91v3.71h1.62v-8.89h-1.97l-1.49,4.17c-0.18,0.54-0.34,1.13-0.53,1.69h-0.06
	c-0.18-0.57-0.35-1.15-0.54-1.69l-1.51-4.17h-1.97V133.52"/>
<rect x="357.82" y="146.43" width="9.77" height="0.83"/>
</svg>
