<?xml version="1.0" encoding="utf-8"?>
<!-- Generator: $$$/GeneralStr/196=Adobe Illustrator 27.6.0, SVG Export Plug-In . SVG Version: 6.00 Build 0)  -->
<svg version="1.1" id="图层_1" xmlns="http://www.w3.org/2000/svg" xmlns:xlink="http://www.w3.org/1999/xlink" x="0px" y="0px"
	 viewBox="0 0 468 168.1" style="enable-background:new 0 0 468 168.1;" xml:space="preserve">
<style type="text/css">
	.st0{fill:#EFECE2;stroke:#808080;stroke-width:1.5;}
	.st1{fill:#FF0000;}
	.st2{fill:#0000FF;}
</style>
<path class="st0" d="M7.5,45.8v-27c0-0.7,0.1-1.5,0.2-2.2c0.1-0.7,0.4-1.4,0.6-2.1c0.3-0.7,0.6-1.3,1-1.9s0.9-1.2,1.4-1.7
	s1.1-1,1.7-1.4s1.3-0.8,1.9-1C15,8.2,15.7,8,16.4,7.9s1.5-0.2,2.2-0.2H39c0.7,0,1.5,0.1,2.2,0.2s1.4,0.4,2.1,0.6s1.3,0.6,1.9,1
	c0.6,0.4,1.2,0.9,1.7,1.4s1,1.1,1.4,1.7s0.8,1.3,1,1.9c0.3,0.7,0.5,1.4,0.6,2.1s0.2,1.5,0.2,2.2v27c0,0.7-0.1,1.5-0.2,2.2
	c-0.1,0.7-0.4,1.4-0.6,2.1s-0.6,1.3-1,1.9c-0.4,0.6-0.9,1.2-1.4,1.7s-1.1,1-1.7,1.4c-0.6,0.4-1.3,0.8-1.9,1
	c-0.7,0.3-1.4,0.5-2.1,0.6C40.5,56.9,39.7,57,39,57H18.8c-0.7,0-1.5-0.1-2.2-0.2c-0.7-0.1-1.4-0.4-2.1-0.6c-0.7-0.3-1.3-0.6-1.9-1
	c-0.6-0.4-1.2-0.9-1.7-1.4s-1-1.1-1.4-1.7c-0.4-0.6-0.8-1.3-1-1.9S7.9,48.7,7.7,48C7.6,47.2,7.5,46.5,7.5,45.8"/>
<path class="st1" d="M18.8,31c0.6,0,1.2-0.1,1.5-0.3L20,29.4c-0.2,0.1-0.6,0.2-1,0.2c-0.8,0-1.6-0.3-2-1c1.8-0.5,2.9-2.1,2.9-4.5
	c0-2.9-1.6-4.6-4-4.6s-4,1.7-4,4.6c0,2.5,1.3,4.2,3.2,4.6C15.7,30,16.9,31,18.8,31 M15.9,27.2c-1.3,0-2.2-1.2-2.2-3.2
	c0-1.9,0.8-3,2.1-3s2.2,1.1,2.2,3C18,26,17.2,27.2,15.9,27.2"/>
<path d="M42.1,23.9h1.6V26h-1.6V23.9 M41.2,21.2V27h3.5v-5.8h-0.9v2h-1.6v-2H41.2 M38.2,23.9h1.6V26h-1.6V23.9 M37.2,21.2V27h3.5
	v-5.8h-0.9v2h-1.6v-2H37.2"/>
<path d="M38.5,41.9h4.8V44h-4.8V41.9 M37.5,39.1V45h6.7v-5.9h-1v2h-4.8v-2H37.5"/>
<path class="st0" d="M53.2,45.8v-27c0-0.7,0.1-1.5,0.2-2.2c0.1-0.7,0.4-1.4,0.6-2.1c0.3-0.7,0.6-1.3,1-1.9s0.9-1.2,1.4-1.7
	s1.1-1,1.7-1.4s1.3-0.8,2-1c0.7-0.3,1.4-0.5,2.1-0.6c0.7-0.1,1.5-0.2,2.2-0.2h20.2c0.7,0,1.5,0.1,2.2,0.2s1.4,0.4,2.1,0.6
	s1.3,0.6,1.9,1s1.2,0.9,1.7,1.4s1,1.1,1.4,1.7s0.8,1.3,1,1.9s0.5,1.4,0.6,2.1s0.2,1.5,0.2,2.2v27c0,0.7-0.1,1.5-0.2,2.2
	s-0.4,1.4-0.6,2.1s-0.6,1.3-1,1.9c-0.4,0.6-0.9,1.2-1.4,1.7s-1.1,1-1.7,1.4s-1.3,0.8-1.9,1c-0.7,0.3-1.4,0.5-2.1,0.6
	s-1.5,0.2-2.2,0.2H64.5c-0.7,0-1.5-0.1-2.2-0.2c-0.7-0.1-1.4-0.4-2.1-0.6s-1.3-0.6-2-1c-0.6-0.4-1.2-0.9-1.7-1.4s-1-1.1-1.4-1.7
	c-0.4-0.6-0.8-1.3-1-1.9c-0.3-0.7-0.5-1.4-0.6-2.1C53.3,47.2,53.2,46.5,53.2,45.8"/>
<path class="st1" d="M58.8,28.5H61l1-4.4c0.1-0.7,0.3-1.4,0.4-2l0,0c0.1,0.7,0.2,1.4,0.4,2l1,4.4H66l1.6-8.9h-1.7L65.2,24
	c-0.1,0.9-0.3,1.9-0.4,2.8h-0.1c-0.2-1-0.4-1.9-0.6-2.8l-1-4.3h-1.5l-1,4.3c-0.2,0.9-0.4,1.9-0.6,2.8l0,0c-0.1-1-0.3-1.9-0.4-2.8
	l-0.7-4.3h-1.8L58.8,28.5"/>
<path d="M86.7,21v0.8H88v0.6c0,1.6-0.4,2.8-1.6,3.5c-1-0.6-1.4-1.9-1.4-3.5v-0.6h1.3V21h-3.8v0.8H84v0.6c0,1.4-0.6,2.9-2,3.6
	l0.6,0.8c0.9-0.4,1.5-1.2,1.8-2.1c0.3,1.1,1,1.8,2.1,2.3c1.1-0.4,1.8-1.2,2.1-2.3c0.3,0.9,0.9,1.7,1.8,2.1L91,26
	c-1.4-0.7-1.9-2.2-1.9-3.6v-0.6h1.5V21H86.7"/>
<path d="M83.2,39.1v0.8H86v0.7c0,1.8-1.3,3.1-3.2,3.6l0.5,0.8c1.5-0.4,2.6-1.3,3.2-2.7c0.5,1.3,1.7,2.2,3.2,2.7l0.5-0.8
	c-1.8-0.5-3.2-1.8-3.2-3.6v-0.7h2.9v-0.8H83.2"/>
<path class="st0" d="M99,45.8v-27c0-0.7,0.1-1.5,0.2-2.2c0.1-0.7,0.4-1.4,0.6-2.1c0.3-0.7,0.6-1.3,1-1.9s0.9-1.2,1.4-1.7
	s1.1-1,1.7-1.4s1.3-0.8,1.9-1c0.7-0.3,1.4-0.5,2.1-0.6s1.5-0.2,2.2-0.2h19.5c0.7,0,1.5,0.1,2.2,0.2s1.4,0.4,2.1,0.6
	c0.7,0.3,1.3,0.6,1.9,1s1.2,0.9,1.7,1.4s1,1.1,1.4,1.7c0.4,0.6,0.8,1.3,1,1.9s0.5,1.4,0.6,2.1s0.2,1.5,0.2,2.2v27
	c0,0.7-0.1,1.5-0.2,2.2c-0.1,0.7-0.4,1.4-0.6,2.1s-0.6,1.3-1,1.9c-0.4,0.6-0.9,1.2-1.4,1.7s-1.1,1-1.7,1.4c-0.6,0.4-1.3,0.8-1.9,1
	c-0.7,0.3-1.4,0.5-2.1,0.6s-1.4,0.2-2.2,0.2h-19.5c-0.7,0-1.5-0.1-2.2-0.2c-0.7-0.1-1.4-0.4-2.1-0.6s-1.3-0.6-1.9-1
	s-1.2-0.9-1.7-1.4s-1-1.1-1.4-1.7c-0.4-0.6-0.8-1.3-1-1.9s-0.5-1.4-0.6-2.1C99.1,47.2,99,46.5,99,45.8"/>
<polyline class="st1" points="103.6,28.5 109.1,28.5 109.1,27 105.3,27 105.3,24.7 108.4,24.7 108.4,23.2 105.3,23.2 105.3,21.1 
	109,21.1 109,19.6 103.6,19.6 103.6,28.5 "/>
<path d="M132.3,26v0.8h3.5V26h-2.5v-4h2.4v-0.8h-3.4V26 M128.4,26v0.8h0.6c1,0,1.9,0,3-0.3l-0.1-0.8c-0.9,0.2-1.7,0.3-2.5,0.3v-4
	h2.4v-0.8h-3.4V26"/>
<polyline points="128.7,44.1 128.7,44.9 135.5,44.9 135.5,44.1 129.7,44.1 129.7,40 135.4,40 135.4,39.2 128.7,39.2 128.7,44.1 "/>
<path class="st0" d="M144,45.8v-27c0-0.7,0.1-1.5,0.2-2.2c0.1-0.7,0.4-1.4,0.6-2.1c0.3-0.7,0.6-1.3,1-1.9c0.4-0.6,0.9-1.2,1.4-1.7
	s1.1-1,1.7-1.4s1.3-0.8,1.9-1c0.7-0.3,1.4-0.5,2.1-0.6c0.7-0.1,1.5-0.2,2.2-0.2h20.2c0.7,0,1.5,0.1,2.2,0.2s1.4,0.4,2.1,0.6
	c0.7,0.3,1.3,0.6,1.9,1s1.2,0.9,1.7,1.4s1,1.1,1.4,1.7c0.4,0.6,0.8,1.3,1,1.9s0.5,1.4,0.6,2.1s0.2,1.5,0.2,2.2v27
	c0,0.7-0.1,1.5-0.2,2.2c-0.1,0.7-0.4,1.4-0.6,2.1s-0.6,1.3-1,1.9c-0.4,0.6-0.9,1.2-1.4,1.7s-1.1,1-1.7,1.4c-0.6,0.4-1.3,0.8-1.9,1
	c-0.7,0.3-1.4,0.5-2.1,0.6s-1.4,0.2-2.2,0.2h-20.2c-0.7,0-1.5-0.1-2.2-0.2c-0.7-0.1-1.4-0.4-2.1-0.6c-0.7-0.3-1.3-0.6-1.9-1
	c-0.6-0.4-1.2-0.9-1.7-1.4s-1-1.1-1.4-1.7c-0.4-0.6-0.8-1.3-1-1.9s-0.5-1.4-0.6-2.1C144.1,47.2,144,46.5,144,45.8"/>
<path class="st1" d="M154,28.5h2l-2.1-3.6c1-0.4,1.7-1.2,1.7-2.6c0-2-1.5-2.7-3.4-2.7h-3.1v8.9h1.8v-3.4h1.2L154,28.5 M150.9,23.8
	v-2.7h1.1c1.1,0,1.8,0.3,1.8,1.3s-0.6,1.4-1.8,1.4L150.9,23.8"/>
<path d="M178.1,21.2V22h2.7v4.9h1v-5.7H178.1 M173.8,21.2V22h2.8v4.9h1v-5.7H173.8"/>
<polyline points="174.2,39.2 174.2,40 180,40 180,44.9 181,44.9 181,39.2 174.2,39.2 "/>
<path class="st0" d="M189.8,45.8v-27c0-0.7,0.1-1.5,0.2-2.2c0.1-0.7,0.4-1.4,0.6-2.1c0.3-0.7,0.6-1.3,1-1.9c0.4-0.6,0.9-1.2,1.4-1.7
	s1.1-1,1.7-1.4s1.3-0.8,1.9-1c0.7-0.3,1.4-0.5,2.1-0.6s1.5-0.2,2.2-0.2h20.2c0.7,0,1.5,0.1,2.2,0.2s1.4,0.4,2.1,0.6
	c0.7,0.3,1.3,0.6,1.9,1s1.2,0.9,1.7,1.4s1,1.1,1.4,1.7c0.4,0.6,0.8,1.3,1,1.9s0.5,1.4,0.6,2.1s0.2,1.5,0.2,2.2v27
	c0,0.7-0.1,1.5-0.2,2.2c-0.1,0.7-0.4,1.4-0.6,2.1s-0.6,1.3-1,1.9c-0.4,0.6-0.9,1.2-1.4,1.7s-1.1,1-1.7,1.4c-0.6,0.4-1.3,0.8-1.9,1
	s-1.4,0.5-2.1,0.6S222,57,221.2,57H201c-0.7,0-1.5-0.1-2.2-0.2c-0.7-0.1-1.4-0.4-2.1-0.6c-0.7-0.3-1.3-0.6-1.9-1
	c-0.6-0.4-1.2-0.9-1.7-1.4s-1-1.1-1.4-1.7c-0.4-0.6-0.8-1.3-1-1.9s-0.5-1.4-0.6-2.1C189.8,47.2,189.8,46.5,189.8,45.8"/>
<polyline class="st1" points="196.5,28.5 198.3,28.5 198.3,21.1 200.8,21.1 200.8,19.6 194,19.6 194,21.1 196.5,21.1 196.5,28.5 "/>
<path d="M224.8,21.3v1.4c0,1-0.5,2.3-1.5,3.1c-1-0.8-1.5-2.1-1.5-3.1v-1.4h-1v1.4c0,1.1-0.6,2.6-1.9,3.3l0.6,0.7
	c1-0.5,1.6-1.4,1.9-2.4c0.3,1,0.9,2,2,2.5c1-0.5,1.6-1.5,2-2.5c0.3,1,0.9,1.8,1.9,2.3l0.6-0.7c-1.4-0.6-1.9-2-1.9-3.3v-1.4
	L224.8,21.3"/>
<path d="M222.8,39v1.8c0,1.8-1.4,3.1-3.4,3.5l0.5,0.8c1.5-0.4,2.8-1.3,3.4-2.6c0.6,1.3,1.9,2.2,3.4,2.6l0.5-0.8
	c-1.9-0.5-3.4-1.7-3.4-3.5V39H222.8"/>
<path class="st0" d="M235.5,45.8v-27c0-0.7,0.1-1.5,0.2-2.2c0.1-0.7,0.4-1.4,0.6-2.1c0.3-0.7,0.6-1.3,1-1.9c0.4-0.6,0.9-1.2,1.4-1.7
	s1.1-1,1.7-1.4c0.6-0.4,1.3-0.8,1.9-1c0.7-0.3,1.4-0.5,2.1-0.6c0.7-0.1,1.5-0.2,2.2-0.2H267c0.7,0,1.5,0.1,2.2,0.2s1.4,0.4,2.1,0.6
	s1.3,0.6,2,1s1.2,0.9,1.7,1.4s1,1.1,1.4,1.7s0.8,1.3,1,1.9s0.5,1.4,0.6,2.1s0.2,1.5,0.2,2.2v27c0,0.7-0.1,1.5-0.2,2.2
	s-0.4,1.4-0.6,2.1c-0.3,0.7-0.6,1.3-1,1.9c-0.4,0.6-0.9,1.2-1.4,1.7s-1.1,1-1.7,1.4s-1.3,0.8-2,1c-0.7,0.3-1.4,0.5-2.1,0.6
	s-1.5,0.2-2.2,0.2h-20.2c-0.7,0-1.5-0.1-2.2-0.2c-0.7-0.1-1.4-0.4-2.1-0.6s-1.3-0.6-1.9-1c-0.6-0.4-1.2-0.9-1.7-1.4s-1-1.1-1.4-1.7
	c-0.4-0.6-0.8-1.3-1-1.9s-0.5-1.4-0.6-2.1C235.6,47.2,235.5,46.5,235.5,45.8"/>
<path class="st1" d="M241.9,28.5h1.8v-3.2l2.7-5.6h-1.9l-0.9,2.2c-0.3,0.7-0.5,1.3-0.8,2h-0.1c-0.3-0.7-0.5-1.3-0.8-2l-0.9-2.2h-1.9
	l2.7,5.6L241.9,28.5"/>
<polyline class="st2" points="264,30.6 266.4,30.6 266.4,30 264.8,30 264.8,19.7 266.4,19.7 266.4,19 264,19 264,30.6 "/>
<rect x="268" y="19.7" class="st2" width="1.1" height="8.8"/>
<polyline class="st2" points="270.7,30.6 273.1,30.6 273.1,19 270.7,19 270.7,19.7 272.2,19.7 272.2,30 270.7,30 270.7,30.6 "/>
<polyline points="269.7,38.9 269.7,43.7 266.9,43.7 266.9,38.9 265.9,38.9 265.9,43.7 263.4,43.7 263.4,44.5 273.2,44.5 273.2,43.7 
	270.7,43.7 270.7,38.9 269.7,38.9 "/>
<path class="st0" d="M281.2,45.8v-27c0-0.7,0.1-1.5,0.2-2.2c0.1-0.7,0.4-1.4,0.6-2.1c0.3-0.7,0.6-1.3,1-1.9s0.9-1.2,1.4-1.7
	s1.1-1,1.7-1.4s1.3-0.8,2-1c0.7-0.3,1.4-0.5,2.1-0.6s1.5-0.2,2.2-0.2h20.2c0.7,0,1.5,0.1,2.2,0.2s1.4,0.4,2.1,0.6s1.3,0.6,2,1
	s1.2,0.9,1.7,1.4s1,1.1,1.4,1.7s0.8,1.3,1,1.9s0.5,1.4,0.6,2.1s0.2,1.5,0.2,2.2v27c0,0.7-0.1,1.5-0.2,2.2s-0.4,1.4-0.6,2.1
	c-0.3,0.7-0.6,1.3-1,1.9c-0.4,0.6-0.9,1.2-1.4,1.7s-1.1,1-1.7,1.4s-1.3,0.8-2,1c-0.7,0.3-1.4,0.5-2.1,0.6s-1.5,0.2-2.2,0.2h-20.3
	c-0.7,0-1.5-0.1-2.2-0.2c-0.7-0.1-1.4-0.4-2.1-0.6s-1.3-0.6-2-1c-0.6-0.4-1.2-0.9-1.7-1.4s-1-1.1-1.4-1.7c-0.4-0.6-0.8-1.3-1-1.9
	s-0.5-1.4-0.6-2.1C281.3,47.2,281.2,46.5,281.2,45.8"/>
<path class="st1" d="M289.4,28.7c2.2,0,3.4-1.2,3.4-4.2v-4.9h-1.7v5c0,1.9-0.7,2.5-1.7,2.5s-1.7-0.6-1.7-2.5v-5h-1.8v4.9
	C285.9,27.5,287.2,28.7,289.4,28.7"/>
<polyline class="st2" points="303.4,30.6 305.7,30.6 305.7,30 304.2,30 304.2,19.7 305.7,19.7 305.7,19 303.4,19 303.4,30.6 "/>
<path class="st2" d="M307.4,28.5h1v-4.9c0-0.8-0.1-1.8-0.1-2.6l0,0l0.7,2l1.7,4.6h0.7l1.7-4.6l0.7-2l0,0c-0.1,0.8-0.1,1.8-0.1,2.6
	v4.9h1v-8.8h-1.3l-1.7,4.7c-0.2,0.6-0.4,1.2-0.6,1.8H311c-0.2-0.6-0.4-1.2-0.6-1.8l-1.7-4.7h-1.3V28.5"/>
<polyline class="st2" points="316.3,30.6 318.7,30.6 318.7,19 316.3,19 316.3,19.7 317.9,19.7 317.9,30 316.3,30 316.3,30.6 "/>
<polyline points="305.7,42.6 305.7,43.4 308.2,43.4 308.2,47.4 309.2,47.4 309.2,36.8 308.2,36.8 308.2,39.7 305.7,39.7 305.7,40.6 
	308.2,40.6 308.2,42.6 305.7,42.6 "/>
<path class="st0" d="M327,45.8v-27c0-0.7,0.1-1.5,0.2-2.2c0.1-0.7,0.4-1.4,0.6-2.1c0.3-0.7,0.6-1.3,1-1.9s0.9-1.2,1.4-1.7
	s1.1-1,1.7-1.4s1.3-0.8,2-1c0.7-0.3,1.4-0.5,2.1-0.6s1.5-0.2,2.2-0.2h19.5c0.7,0,1.5,0.1,2.2,0.2s1.4,0.4,2.1,0.6s1.3,0.6,2,1
	s1.2,0.9,1.7,1.4s1,1.1,1.4,1.7s0.8,1.3,1,1.9s0.5,1.4,0.6,2.1s0.2,1.5,0.2,2.2v27c0,0.7-0.1,1.5-0.2,2.2s-0.4,1.4-0.6,2.1
	c-0.3,0.7-0.6,1.3-1,1.9c-0.4,0.6-0.9,1.2-1.4,1.7s-1.1,1-1.7,1.4s-1.3,0.8-2,1c-0.7,0.3-1.4,0.5-2.1,0.6s-1.5,0.2-2.2,0.2h-19.5
	c-0.7,0-1.5-0.1-2.2-0.2c-0.7-0.1-1.4-0.4-2.1-0.6s-1.3-0.6-2-1c-0.6-0.4-1.2-0.9-1.7-1.4s-1-1.1-1.4-1.7c-0.4-0.6-0.8-1.3-1-1.9
	s-0.5-1.4-0.6-2.1C327.1,47.2,327,46.5,327,45.8"/>
<rect x="331.5" y="19.6" class="st1" width="1.8" height="8.9"/>
<polyline points="358.9,36.8 358.9,47.4 359.9,47.4 359.9,43.7 362.3,43.7 362.3,42.9 359.9,42.9 359.9,40.7 362.3,40.7 362.3,39.9 
	359.9,39.9 359.9,36.8 358.9,36.8 "/>
<path class="st0" d="M372,45.8v-27c0-0.7,0.1-1.5,0.2-2.2c0.1-0.7,0.4-1.4,0.6-2.1c0.3-0.7,0.6-1.3,1-1.9s0.9-1.2,1.4-1.7
	s1.1-1,1.7-1.4s1.3-0.8,2-1c0.7-0.3,1.4-0.5,2.1-0.6s1.5-0.2,2.2-0.2h20.2c0.7,0,1.5,0.1,2.2,0.2s1.4,0.4,2.1,0.6s1.3,0.6,2,1
	s1.2,0.9,1.7,1.4s1,1.1,1.4,1.7s0.8,1.3,1,1.9s0.5,1.4,0.6,2.1s0.2,1.5,0.2,2.2v27c0,0.7-0.1,1.5-0.2,2.2s-0.4,1.4-0.6,2.1
	c-0.3,0.7-0.6,1.3-1,1.9c-0.4,0.6-0.9,1.2-1.4,1.7s-1.1,1-1.7,1.4s-1.3,0.8-2,1c-0.7,0.3-1.4,0.5-2.1,0.6s-1.5,0.2-2.2,0.2h-20.2
	c-0.7,0-1.5-0.1-2.2-0.2c-0.7-0.1-1.4-0.4-2.1-0.6s-1.3-0.6-2-1c-0.6-0.4-1.2-0.9-1.7-1.4s-1-1.1-1.4-1.7c-0.4-0.6-0.8-1.3-1-1.9
	s-0.5-1.4-0.6-2.1C372.1,47.2,372,46.5,372,45.8"/>
<path class="st1" d="M380.7,27.2c-1.3,0-2.1-1.2-2.1-3.1s0.8-3,2.1-3s2.2,1.1,2.2,3S382,27.2,380.7,27.2 M380.7,28.7
	c2.4,0,4-1.8,4-4.6c0-2.9-1.6-4.6-4-4.6s-4,1.7-4,4.6C376.7,26.9,378.3,28.7,380.7,28.7"/>
<path d="M403.8,19v10.1h1v-3.5h1.8v3.9h1V18.8h-1v3h-1.8V19H403.8 M406.6,22.6v2.1h-1.8v-2.1H406.6"/>
<polyline points="403.8,37 403.8,47 404.8,47 404.8,41.9 406.6,41.9 406.6,47.4 407.6,47.4 407.6,36.8 406.6,36.8 406.6,41 
	404.8,41 404.8,37 403.8,37 "/>
<path class="st0" d="M417.8,45.8v-27c0-0.7,0.1-1.5,0.2-2.2c0.1-0.7,0.4-1.4,0.6-2.1c0.3-0.7,0.6-1.3,1-1.9s0.9-1.2,1.4-1.7
	s1.1-1,1.7-1.4s1.3-0.8,2-1c0.7-0.3,1.4-0.5,2.1-0.6s1.5-0.2,2.2-0.2h20.2c0.7,0,1.5,0.1,2.2,0.2s1.4,0.4,2.1,0.6s1.3,0.6,2,1
	s1.2,0.9,1.7,1.4s1,1.1,1.4,1.7s0.8,1.3,1,1.9s0.5,1.4,0.6,2.1s0.2,1.5,0.2,2.2v27c0,0.7-0.1,1.5-0.2,2.2s-0.4,1.4-0.6,2.1
	c-0.3,0.7-0.6,1.3-1,1.9c-0.4,0.6-0.9,1.2-1.4,1.7s-1.1,1-1.7,1.4s-1.3,0.8-2,1c-0.7,0.3-1.4,0.5-2.1,0.6s-1.5,0.2-2.2,0.2H429
	c-0.7,0-1.5-0.1-2.2-0.2c-0.7-0.1-1.4-0.4-2.1-0.6s-1.3-0.6-2-1c-0.6-0.4-1.2-0.9-1.7-1.4s-1-1.1-1.4-1.7c-0.4-0.6-0.8-1.3-1-1.9
	s-0.5-1.4-0.6-2.1C417.8,47.2,417.8,46.5,417.8,45.8"/>
<path class="st1" d="M424.5,24v-2.9h1c1.2,0,1.9,0.4,1.9,1.4s-0.6,1.5-1.8,1.5H424.5 M422.7,28.5h1.8v-3.1h1.2
	c1.9,0,3.4-0.9,3.4-2.9c0-2.1-1.5-2.8-3.5-2.8h-2.9V28.5"/>
<path d="M450.5,19v2.7h-2v0.8h2v2h-2v0.8h2V29h1V19H450.5 M452.6,18.8v10.6h1V18.8H452.6"/>
<path d="M450.5,37v4h-2v0.8h2V47h1V37H450.5 M452.6,36.8v10.7h1V36.8H452.6"/>
<path class="st0" d="M26.2,98.3v-27c0-0.7,0.1-1.5,0.2-2.2s0.4-1.4,0.6-2.1c0.3-0.7,0.6-1.3,1-1.9s0.9-1.2,1.4-1.7s1.1-1,1.7-1.4
	s1.3-0.8,1.9-1c0.7-0.3,1.4-0.5,2.1-0.6c0.7-0.1,1.5-0.2,2.2-0.2h21c0.7,0,1.5,0.1,2.2,0.2c0.7,0.1,1.4,0.4,2.1,0.6s1.3,0.6,1.9,1
	s1.2,0.9,1.7,1.4s1,1.1,1.4,1.7s0.8,1.3,1,1.9s0.5,1.4,0.6,2.1s0.2,1.5,0.2,2.2v27c0,0.7-0.1,1.5-0.2,2.2s-0.4,1.4-0.6,2.1
	s-0.6,1.3-1,1.9s-0.9,1.2-1.4,1.7s-1.1,1-1.7,1.4s-1.3,0.8-1.9,1s-1.4,0.5-2.1,0.6c-0.7,0.1-1.5,0.2-2.2,0.2h-21
	c-0.7,0-1.5-0.1-2.2-0.2s-1.4-0.4-2.1-0.6s-1.3-0.6-2-1c-0.6-0.4-1.2-0.9-1.7-1.4s-1-1.1-1.4-1.7s-0.8-1.3-1-1.9
	c-0.3-0.7-0.5-1.4-0.6-2.1C26.3,99.7,26.2,99,26.2,98.3"/>
<path class="st1" d="M32.8,77.4l0.3-1c0.3-0.9,0.5-1.9,0.8-2.9l0,0c0.3,0.9,0.5,2,0.8,2.9l0.3,1H32.8 M30,81h1.8l0.6-2.3h2.9
	l0.6,2.3h1.9L35,72.1h-2.1L30,81"/>
<path d="M60.5,75l1.5,3.7h-2.9L60.5,75 M57.7,79.5h5.6l-2.8-6.7L57.7,79.5"/>
<path d="M62.9,92.5v4h-4.8v-4H62.9 M57.1,91.7v5.7h6.8v-5.7H57.1"/>
<path class="st0" d="M72.8,98.3v-27c0-0.7,0.1-1.5,0.2-2.2s0.4-1.4,0.6-2.1s0.6-1.3,1-1.9s0.9-1.2,1.4-1.7s1.1-1,1.7-1.4
	s1.3-0.8,1.9-1c0.7-0.3,1.4-0.5,2.1-0.6s1.5-0.2,2.2-0.2h21c0.7,0,1.5,0.1,2.2,0.2c0.7,0.1,1.4,0.4,2.1,0.6s1.3,0.6,1.9,1
	s1.2,0.9,1.7,1.4s1,1.1,1.4,1.7s0.8,1.3,1,1.9s0.5,1.4,0.6,2.1s0.2,1.5,0.2,2.2v27c0,0.7-0.1,1.5-0.2,2.2s-0.4,1.4-0.6,2.1
	s-0.6,1.3-1,1.9s-0.9,1.2-1.4,1.7s-1.1,1-1.7,1.4s-1.3,0.8-1.9,1s-1.4,0.5-2.1,0.6s-1.4,0.2-2.2,0.2H84c-0.7,0-1.5-0.1-2.2-0.2
	s-1.4-0.4-2.1-0.6s-1.3-0.6-1.9-1s-1.2-0.9-1.7-1.4s-1-1.1-1.4-1.7s-0.8-1.3-1-1.9s-0.5-1.4-0.6-2.1C72.8,99.7,72.8,99,72.8,98.3"/>
<path class="st1" d="M80.2,81.2c2.1,0,3.3-1.2,3.3-2.7c0-1.3-0.7-2-1.8-2.4l-1.2-0.5c-0.8-0.3-1.4-0.5-1.4-1.2
	c0-0.6,0.5-0.9,1.3-0.9c0.7,0,1.3,0.3,1.9,0.7l0.9-1.1c-0.7-0.7-1.8-1.2-2.8-1.2c-1.8,0-3.1,1.1-3.1,2.6c0,1.3,0.9,2,1.8,2.4
	l1.2,0.5c0.8,0.3,1.3,0.5,1.3,1.2c0,0.6-0.5,1-1.4,1c-0.8,0-1.6-0.4-2.3-1l-1,1.2C77.9,80.7,79.1,81.2,80.2,81.2"/>
<path d="M98,83.4l0.7-0.3c-1-1.7-1.5-3.7-1.5-5.8c0-2,0.5-4.1,1.5-5.8L98,71.2c-1.1,1.8-1.8,3.7-1.8,6.1
	C96.3,79.7,96.9,81.6,98,83.4"/>
<path d="M103.8,78.6c1.1,0,2,0.7,2,1.8s-0.9,1.8-2,1.8s-2-0.8-2-1.8S102.7,78.6,103.8,78.6 M103.8,77.9c-1.6,0-2.8,1-2.8,2.5
	s1.2,2.5,2.8,2.5c1.6,0,2.8-1,2.8-2.5S105.4,77.9,103.8,77.9"/>
<path d="M109.6,83.4c1.1-1.8,1.8-3.7,1.8-6.1c0-2.3-0.7-4.3-1.8-6.1l-0.7,0.3c1,1.7,1.6,3.7,1.6,5.8c0,2-0.5,4.1-1.6,5.8L109.6,83.4
	"/>
<polyline points="97.4,94 97.4,99.6 104.2,99.6 104.2,98.7 98.4,98.7 98.4,94 97.4,94 "/>
<path class="st0" d="M119.2,98.3v-27c0-0.7,0.1-1.5,0.2-2.2s0.4-1.4,0.6-2.1s0.6-1.3,1-1.9s0.9-1.2,1.4-1.7s1.1-1,1.7-1.4
	s1.3-0.8,1.9-1c0.7-0.3,1.4-0.5,2.1-0.6s1.5-0.2,2.2-0.2h21c0.7,0,1.5,0.1,2.2,0.2c0.7,0.1,1.4,0.4,2.1,0.6c0.7,0.3,1.3,0.6,1.9,1
	s1.2,0.9,1.7,1.4s1,1.1,1.4,1.7s0.8,1.3,1,1.9s0.5,1.4,0.6,2.1s0.2,1.5,0.2,2.2v27c0,0.7-0.1,1.5-0.2,2.2c-0.1,0.7-0.4,1.4-0.6,2.1
	s-0.6,1.3-1,1.9s-0.9,1.2-1.4,1.7s-1.1,1-1.7,1.4c-0.6,0.4-1.3,0.8-1.9,1c-0.7,0.3-1.4,0.5-2.1,0.6s-1.4,0.2-2.2,0.2h-21
	c-0.7,0-1.5-0.1-2.2-0.2s-1.4-0.4-2.1-0.6s-1.3-0.6-1.9-1s-1.2-0.9-1.7-1.4s-1-1.1-1.4-1.7s-0.8-1.3-1-1.9s-0.5-1.4-0.6-2.1
	C119.3,99.7,119.2,99,119.2,98.3"/>
<path class="st1" d="M125.9,79.6v-6h0.5c1.7,0,2.7,0.8,2.7,3s-1,3.1-2.7,3.1L125.9,79.6 M124.1,81h2.5c2.6,0,4.3-1.5,4.3-4.5
	s-1.7-4.4-4.4-4.4h-2.4L124.1,81"/>
<path d="M153,72.8v1.6c-1.5,0.2-2.6,1.4-2.6,2.9c0,1.7,1.3,2.9,3.1,2.9c1.7,0,3.1-1.2,3.1-2.9c0-1.5-1.1-2.7-2.6-2.9v-1.6H153
	 M153.5,75.1c1.2,0,2.1,0.9,2.1,2.1s-0.9,2.1-2.1,2.1c-1.2,0-2.1-0.9-2.1-2.1S152.3,75.1,153.5,75.1"/>
<path d="M153.5,92.4c1.4,0,2.4,0.9,2.4,2.1s-1.1,2.2-2.4,2.2c-1.4,0-2.4-0.9-2.4-2.2C151.1,93.2,152.1,92.4,153.5,92.4 M153.5,91.5
	c-1.9,0-3.4,1.2-3.4,3s1.5,3,3.4,3s3.4-1.2,3.4-3C156.9,92.8,155.4,91.5,153.5,91.5"/>
<path class="st0" d="M165.8,98.3v-27c0-0.7,0.1-1.5,0.2-2.2c0.1-0.7,0.4-1.4,0.6-2.1s0.6-1.3,1-1.9s0.9-1.2,1.4-1.7s1.1-1,1.7-1.4
	s1.3-0.8,1.9-1c0.7-0.3,1.4-0.5,2.1-0.6s1.5-0.2,2.2-0.2h21c0.7,0,1.5,0.1,2.2,0.2c0.7,0.1,1.4,0.4,2.1,0.6c0.7,0.3,1.3,0.6,1.9,1
	s1.2,0.9,1.7,1.4s1,1.1,1.4,1.7s0.8,1.3,1,1.9s0.5,1.4,0.6,2.1s0.2,1.5,0.2,2.2v27c0,0.7-0.1,1.5-0.2,2.2c-0.1,0.7-0.4,1.4-0.6,2.1
	s-0.6,1.3-1,1.9s-0.9,1.2-1.4,1.7s-1.1,1-1.7,1.4c-0.6,0.4-1.3,0.8-1.9,1c-0.7,0.3-1.4,0.5-2.1,0.6s-1.4,0.2-2.2,0.2h-21
	c-0.7,0-1.5-0.1-2.2-0.2s-1.4-0.4-2.1-0.6c-0.7-0.3-1.3-0.6-1.9-1c-0.6-0.4-1.2-0.9-1.7-1.4s-1-1.1-1.4-1.7s-0.8-1.3-1-1.9
	s-0.5-1.4-0.6-2.1C165.8,99.7,165.8,99,165.8,98.3"/>
<polyline class="st1" points="170.6,81 172.4,81 172.4,77.4 175.5,77.4 175.5,75.9 172.4,75.9 172.4,73.6 176.1,73.6 176.1,72.1 
	170.6,72.1 170.6,81 "/>
<path d="M192,75.6c-0.5,0-0.9,0.4-0.9,0.9s0.4,0.9,0.9,0.9s0.9-0.4,0.9-0.9S192.5,75.6,192,75.6"/>
<path d="M197.9,71.8c0,0.2-0.2,0.4-0.5,0.4s-0.5-0.2-0.5-0.4c0-0.3,0.2-0.5,0.5-0.5S197.9,71.5,197.9,71.8 M196.5,72.7
	c0,0.3-0.2,0.5-0.5,0.5s-0.4-0.2-0.4-0.5c0-0.2,0.2-0.4,0.4-0.4C196.3,72.3,196.5,72.5,196.5,72.7 M195.4,74c0,0.3-0.2,0.5-0.5,0.5
	s-0.5-0.2-0.5-0.5c0-0.2,0.2-0.4,0.5-0.4S195.4,73.8,195.4,74 M194.9,75.6c0,0.2-0.2,0.5-0.5,0.5c-0.2,0-0.4-0.2-0.4-0.5
	s0.2-0.5,0.4-0.5C194.7,75.2,194.9,75.4,194.9,75.6 M194.9,77.3c0,0.2-0.2,0.5-0.5,0.5c-0.2,0-0.4-0.2-0.4-0.5s0.2-0.4,0.4-0.4
	C194.7,76.9,194.9,77.1,194.9,77.3 M195.4,78.9c0,0.3-0.2,0.5-0.5,0.5s-0.5-0.2-0.5-0.5c0-0.2,0.2-0.4,0.5-0.4
	S195.4,78.7,195.4,78.9 M196.5,80.3c0,0.2-0.2,0.4-0.5,0.4s-0.4-0.2-0.4-0.4c0-0.3,0.2-0.5,0.4-0.5C196.3,79.8,196.5,80,196.5,80.3
	 M197.9,81.2c0,0.3-0.2,0.5-0.5,0.5c-0.2,0-0.4-0.2-0.4-0.5c0-0.2,0.2-0.4,0.4-0.4C197.7,80.7,197.9,80.9,197.9,81.2 M199.5,81.6
	c0,0.2-0.2,0.4-0.4,0.4c-0.3,0-0.5-0.2-0.5-0.4s0.2-0.5,0.5-0.5C199.3,81.1,199.5,81.3,199.5,81.6 M201.2,81.4
	c0,0.3-0.2,0.5-0.5,0.5s-0.5-0.2-0.5-0.5c0-0.2,0.2-0.4,0.5-0.4S201.2,81.2,201.2,81.4 M202.8,80.8c0,0.2-0.2,0.4-0.5,0.4
	c-0.2,0-0.4-0.2-0.4-0.4c0-0.3,0.2-0.5,0.4-0.5C202.6,80.3,202.8,80.5,202.8,80.8 M204,79.6c0,0.3-0.2,0.4-0.5,0.4
	c-0.2,0-0.4-0.2-0.4-0.4c0-0.2,0.2-0.4,0.4-0.4C203.8,79.2,204,79.4,204,79.6 M204.8,78.1c0,0.3-0.2,0.5-0.4,0.5s-0.4-0.2-0.4-0.5
	c0-0.2,0.2-0.4,0.4-0.4S204.8,77.9,204.8,78.1 M205.1,76.5c0,0.2-0.2,0.5-0.5,0.5s-0.5-0.2-0.5-0.5c0-0.2,0.2-0.5,0.5-0.5
	C204.9,76,205.1,76.2,205.1,76.5 M204.8,74.8c0,0.3-0.2,0.5-0.4,0.5c-0.3,0-0.5-0.2-0.5-0.5c0-0.2,0.2-0.4,0.5-0.4
	C204.6,74.3,204.8,74.6,204.8,74.8 M204,73.3c0,0.2-0.2,0.5-0.5,0.5c-0.2,0-0.4-0.2-0.4-0.5c0-0.2,0.2-0.4,0.4-0.4
	C203.8,72.9,204,73.1,204,73.3 M202.8,72.2c0,0.2-0.2,0.5-0.5,0.5c-0.2,0-0.4-0.2-0.4-0.5c0-0.2,0.2-0.4,0.4-0.4
	C202.6,71.7,202.8,71.9,202.8,72.2 M201.2,71.5c0,0.2-0.2,0.4-0.5,0.4s-0.5-0.2-0.5-0.4s0.2-0.4,0.5-0.4S201.2,71.2,201.2,71.5
	 M199.5,71.4c0,0.2-0.2,0.4-0.4,0.4s-0.5-0.2-0.5-0.4c0-0.2,0.2-0.5,0.5-0.5S199.5,71.1,199.5,71.4"/>
<polyline points="192.6,96.6 192.6,97.5 199.6,97.5 199.6,96.6 193.6,96.6 193.6,94.9 199.4,94.9 199.4,91.6 192.6,91.6 192.6,92.3 
	198.5,92.3 198.5,94.1 192.6,94.1 192.6,96.6 "/>
<path class="st0" d="M212.2,98.3v-27c0-0.7,0.1-1.5,0.2-2.2c0.1-0.7,0.4-1.4,0.6-2.1s0.6-1.3,1-1.9s0.9-1.2,1.4-1.7s1.1-1,1.7-1.4
	c0.6-0.4,1.3-0.8,1.9-1c0.7-0.3,1.4-0.5,2.1-0.6c0.7-0.1,1.5-0.2,2.2-0.2h21c0.7,0,1.5,0.1,2.2,0.2c0.7,0.1,1.4,0.4,2.1,0.6
	c0.7,0.3,1.3,0.6,1.9,1s1.2,0.9,1.7,1.4s1,1.1,1.4,1.7s0.8,1.3,1,1.9s0.5,1.4,0.6,2.1s0.2,1.5,0.2,2.2v27c0,0.7-0.1,1.5-0.2,2.2
	c-0.1,0.7-0.4,1.4-0.6,2.1s-0.6,1.3-1,1.9s-0.9,1.2-1.4,1.7s-1.1,1-1.7,1.4c-0.6,0.4-1.3,0.8-1.9,1c-0.7,0.3-1.4,0.5-2.1,0.6
	c-0.7,0.1-1.5,0.2-2.2,0.2h-21c-0.7,0-1.5-0.1-2.2-0.2s-1.4-0.4-2.1-0.6c-0.7-0.3-1.3-0.6-1.9-1c-0.6-0.4-1.2-0.9-1.7-1.4
	s-1-1.1-1.4-1.7s-0.8-1.3-1-1.9s-0.5-1.4-0.6-2.1C212.3,99.7,212.2,99,212.2,98.3"/>
<path class="st1" d="M220.9,81.2c1.2,0,2.3-0.5,2.9-1.1v-4h-3.2v1.4h1.6v1.8c-0.2,0.2-0.7,0.3-1.1,0.3c-1.8,0-2.6-1.2-2.6-3.1
	s1-3.1,2.5-3.1c0.8,0,1.3,0.3,1.7,0.7l0.9-1.1c-0.6-0.6-1.5-1.1-2.8-1.1c-2.4,0-4.3,1.7-4.3,4.6C216.6,79.6,218.5,81.2,220.9,81.2"
	/>
<path d="M246.5,75.7c1,0,1.7,0.7,1.7,1.7s-0.7,1.7-1.7,1.7s-1.7-0.7-1.7-1.7C244.8,76.4,245.5,75.7,246.5,75.7 M246.5,74.9
	c-1.6,0-2.7,1-2.7,2.5c0,1.4,1.1,2.5,2.7,2.5c1.6,0,2.7-1,2.7-2.5S248,74.9,246.5,74.9 M243.6,73.3v0.8h5.8v-0.8H243.6"/>
<path d="M246,90.9v1.4h-3.1v0.8h7.2v-0.8H247v-1.4H246 M246.5,94.8c0.9,0,1.7,0.5,1.7,1.1c0,0.7-0.7,1.2-1.7,1.2
	c-0.9,0-1.6-0.5-1.6-1.2C244.9,95.3,245.6,94.8,246.5,94.8 M246.5,94c-1.5,0-2.7,0.8-2.7,2s1.1,2,2.7,2c1.6,0,2.7-0.8,2.7-2
	S248.1,94,246.5,94"/>
<path class="st0" d="M258.8,98.3v-27c0-0.7,0.1-1.5,0.2-2.2s0.4-1.4,0.6-2.1c0.3-0.7,0.6-1.3,1-1.9s0.9-1.2,1.4-1.7s1.1-1,1.7-1.4
	s1.3-0.8,2-1c0.7-0.3,1.4-0.5,2.1-0.6s1.5-0.2,2.2-0.2h21c0.7,0,1.5,0.1,2.2,0.2c0.7,0.1,1.4,0.4,2.1,0.6s1.3,0.6,2,1
	c0.6,0.4,1.2,0.9,1.7,1.4s1,1.1,1.4,1.7s0.8,1.3,1,1.9s0.5,1.4,0.6,2.1s0.2,1.5,0.2,2.2v27c0,0.7-0.1,1.5-0.2,2.2s-0.4,1.4-0.6,2.1
	c-0.3,0.7-0.6,1.3-1,1.9s-0.9,1.2-1.4,1.7s-1.1,1-1.7,1.4s-1.3,0.8-2,1c-0.7,0.3-1.4,0.5-2.1,0.6s-1.5,0.2-2.2,0.2h-21
	c-0.7,0-1.5-0.1-2.2-0.2s-1.4-0.4-2.1-0.6s-1.3-0.6-2-1c-0.6-0.4-1.2-0.9-1.7-1.4s-1-1.1-1.4-1.7s-0.8-1.3-1-1.9s-0.5-1.4-0.6-2.1
	C258.8,99.7,258.8,99,258.8,98.3"/>
<polyline class="st1" points="263.6,81 265.4,81 265.4,77.2 268.7,77.2 268.7,81 270.5,81 270.5,72.1 268.7,72.1 268.7,75.7 
	265.4,75.7 265.4,72.1 263.6,72.1 263.6,81 "/>
<path d="M285,76.8c-0.5,0-0.9,0.4-0.9,0.9s0.4,0.9,0.9,0.9s0.9-0.4,0.9-0.9C285.9,77.2,285.5,76.8,285,76.8 M285,74.3
	c-0.5,0-0.9,0.4-0.9,0.9s0.4,0.9,0.9,0.9s0.9-0.4,0.9-0.9C285.9,74.7,285.5,74.3,285,74.3"/>
<path d="M290.9,71.8c0,0.2-0.2,0.4-0.5,0.4s-0.5-0.2-0.5-0.4c0-0.3,0.2-0.5,0.5-0.5C290.7,71.3,290.9,71.5,290.9,71.8 M289.5,72.7
	c0,0.3-0.2,0.5-0.5,0.5s-0.5-0.2-0.5-0.5c0-0.2,0.2-0.4,0.5-0.4C289.3,72.3,289.5,72.5,289.5,72.7 M288.5,74c0,0.3-0.2,0.5-0.5,0.5
	s-0.5-0.2-0.5-0.5c0-0.2,0.2-0.4,0.5-0.4C288.2,73.6,288.5,73.8,288.5,74 M287.9,75.6c0,0.2-0.2,0.5-0.5,0.5c-0.2,0-0.5-0.2-0.5-0.5
	s0.2-0.5,0.5-0.5C287.7,75.2,287.9,75.4,287.9,75.6 M287.9,77.3c0,0.2-0.2,0.5-0.5,0.5c-0.2,0-0.5-0.2-0.5-0.5s0.2-0.4,0.5-0.4
	C287.7,76.9,287.9,77.1,287.9,77.3 M288.5,78.9c0,0.3-0.2,0.5-0.5,0.5s-0.5-0.2-0.5-0.5c0-0.2,0.2-0.4,0.5-0.4
	C288.2,78.5,288.5,78.7,288.5,78.9 M289.5,80.3c0,0.2-0.2,0.4-0.5,0.4s-0.5-0.2-0.5-0.4c0-0.3,0.2-0.5,0.5-0.5S289.5,80,289.5,80.3
	 M290.9,81.2c0,0.3-0.2,0.5-0.5,0.5c-0.2,0-0.5-0.2-0.5-0.5c0-0.2,0.2-0.4,0.5-0.4C290.7,80.7,290.9,80.9,290.9,81.2 M292.5,81.6
	c0,0.2-0.2,0.4-0.5,0.4s-0.5-0.2-0.5-0.4s0.2-0.5,0.5-0.5S292.5,81.3,292.5,81.6 M294.2,81.4c0,0.3-0.2,0.5-0.5,0.5
	s-0.5-0.2-0.5-0.5c0-0.2,0.2-0.4,0.5-0.4S294.2,81.2,294.2,81.4 M295.8,80.8c0,0.2-0.2,0.4-0.5,0.4c-0.2,0-0.4-0.2-0.4-0.4
	c0-0.3,0.2-0.5,0.4-0.5C295.6,80.3,295.8,80.5,295.8,80.8 M297,79.6c0,0.3-0.2,0.4-0.5,0.4c-0.2,0-0.5-0.2-0.5-0.4
	c0-0.2,0.2-0.4,0.5-0.4S297,79.4,297,79.6 M297.8,78.1c0,0.3-0.2,0.5-0.5,0.5c-0.2,0-0.5-0.2-0.5-0.5c0-0.2,0.2-0.4,0.5-0.4
	S297.8,77.9,297.8,78.1 M298.1,76.5c0,0.2-0.2,0.5-0.5,0.5s-0.5-0.2-0.5-0.5c0-0.2,0.2-0.5,0.5-0.5S298.1,76.2,298.1,76.5
	 M297.8,74.8c0,0.3-0.2,0.5-0.5,0.5s-0.5-0.2-0.5-0.5c0-0.2,0.2-0.4,0.5-0.4C297.6,74.3,297.8,74.6,297.8,74.8 M297,73.3
	c0,0.2-0.2,0.5-0.5,0.5c-0.2,0-0.4-0.2-0.4-0.5c0-0.2,0.2-0.4,0.4-0.4C296.8,72.9,297,73.1,297,73.3 M295.8,72.2
	c0,0.2-0.2,0.5-0.5,0.5c-0.2,0-0.4-0.2-0.4-0.5c0-0.2,0.2-0.4,0.4-0.4C295.5,71.7,295.8,71.9,295.8,72.2 M294.2,71.5
	c0,0.2-0.2,0.4-0.5,0.4s-0.5-0.2-0.5-0.4s0.2-0.4,0.5-0.4S294.2,71.2,294.2,71.5 M292.5,71.4c0,0.2-0.2,0.4-0.5,0.4
	s-0.5-0.2-0.5-0.4c0-0.2,0.2-0.5,0.5-0.5S292.5,71.1,292.5,71.4"/>
<polyline points="288.5,91.3 288.5,95.9 284.1,95.9 284.1,96.7 293.9,96.7 293.9,95.9 289.5,95.9 289.5,91.3 288.5,91.3 "/>
<path class="st0" d="M305.2,98.3v-27c0-0.7,0.1-1.5,0.2-2.2s0.4-1.4,0.6-2.1c0.3-0.7,0.6-1.3,1-1.9s0.9-1.2,1.4-1.7s1.1-1,1.7-1.4
	s1.3-0.8,2-1c0.7-0.3,1.4-0.5,2.1-0.6s1.5-0.2,2.2-0.2h21c0.7,0,1.5,0.1,2.2,0.2c0.7,0.1,1.4,0.4,2.1,0.6s1.3,0.6,2,1
	c0.6,0.4,1.2,0.9,1.7,1.4s1,1.1,1.4,1.7s0.8,1.3,1,1.9s0.5,1.4,0.6,2.1s0.2,1.5,0.2,2.2v27c0,0.7-0.1,1.5-0.2,2.2s-0.4,1.4-0.6,2.1
	c-0.3,0.7-0.6,1.3-1,1.9s-0.9,1.2-1.4,1.7s-1.1,1-1.7,1.4s-1.3,0.8-2,1c-0.7,0.3-1.4,0.5-2.1,0.6s-1.5,0.2-2.2,0.2h-21
	c-0.7,0-1.5-0.1-2.2-0.2s-1.4-0.4-2.1-0.6s-1.3-0.6-2-1c-0.6-0.4-1.2-0.9-1.7-1.4s-1-1.1-1.4-1.7s-0.8-1.3-1-1.9s-0.5-1.4-0.6-2.1
	C305.3,99.7,305.2,99,305.2,98.3"/>
<path class="st1" d="M312,81.2c1.9,0,2.8-1.4,2.8-3v-6H313V78c0,1.2-0.4,1.6-1.2,1.6c-0.5,0-1-0.3-1.3-0.9l-1.2,0.9
	C309.9,80.7,310.7,81.2,312,81.2"/>
<polyline class="st2" points="331.5,83.1 333.9,83.1 333.9,82.4 332.4,82.4 332.4,72.2 333.9,72.2 333.9,71.5 331.5,71.5 
	331.5,83.1 "/>
<polyline class="st2" points="335.5,81 336.6,81 336.6,77.1 340,77.1 340,76.1 336.6,76.1 336.6,73.2 340.6,73.2 340.6,72.2 
	335.5,72.2 335.5,81 "/>
<polyline class="st2" points="341.4,83.1 343.7,83.1 343.7,71.5 341.4,71.5 341.4,72.2 342.9,72.2 342.9,82.4 341.4,82.4 
	341.4,83.1 "/>
<polyline points="333.8,93.6 333.8,94.4 336.4,94.4 336.4,99.9 337.4,99.9 337.4,89.3 336.4,89.3 336.4,93.6 333.8,93.6 "/>
<path class="st0" d="M351.8,98.3v-27c0-0.7,0.1-1.5,0.2-2.2s0.4-1.4,0.6-2.1c0.3-0.7,0.6-1.3,1-1.9s0.9-1.2,1.4-1.7s1.1-1,1.7-1.4
	s1.3-0.8,2-1c0.7-0.3,1.4-0.5,2.1-0.6s1.5-0.2,2.2-0.2h21c0.7,0,1.5,0.1,2.2,0.2c0.7,0.1,1.4,0.4,2.1,0.6s1.3,0.6,2,1
	c0.6,0.4,1.2,0.9,1.7,1.4s1,1.1,1.4,1.7s0.8,1.3,1,1.9s0.5,1.4,0.6,2.1s0.2,1.5,0.2,2.2v27c0,0.7-0.1,1.5-0.2,2.2s-0.4,1.4-0.6,2.1
	c-0.3,0.7-0.6,1.3-1,1.9s-0.9,1.2-1.4,1.7s-1.1,1-1.7,1.4s-1.3,0.8-2,1c-0.7,0.3-1.4,0.5-2.1,0.6s-1.5,0.2-2.2,0.2h-21
	c-0.7,0-1.5-0.1-2.2-0.2s-1.4-0.4-2.1-0.6s-1.3-0.6-2-1c-0.6-0.4-1.2-0.9-1.7-1.4s-1-1.1-1.4-1.7s-0.8-1.3-1-1.9s-0.5-1.4-0.6-2.1
	C351.8,99.7,351.8,99,351.8,98.3"/>
<path class="st0" d="M398.2,98.3v-27c0-0.7,0.1-1.5,0.2-2.2s0.4-1.4,0.6-2.1c0.3-0.7,0.6-1.3,1-1.9s0.9-1.2,1.4-1.7s1.1-1,1.7-1.4
	s1.3-0.8,2-1c0.7-0.3,1.4-0.5,2.1-0.6s1.5-0.2,2.2-0.2h21c0.7,0,1.5,0.1,2.2,0.2c0.7,0.1,1.4,0.4,2.1,0.6s1.3,0.6,2,1
	c0.6,0.4,1.2,0.9,1.7,1.4s1,1.1,1.4,1.7s0.8,1.3,1,1.9s0.5,1.4,0.6,2.1s0.2,1.5,0.2,2.2v27c0,0.7-0.1,1.5-0.2,2.2s-0.4,1.4-0.6,2.1
	c-0.3,0.7-0.6,1.3-1,1.9s-0.9,1.2-1.4,1.7s-1.1,1-1.7,1.4s-1.3,0.8-2,1c-0.7,0.3-1.4,0.5-2.1,0.6s-1.5,0.2-2.2,0.2h-21
	c-0.7,0-1.5-0.1-2.2-0.2s-1.4-0.4-2.1-0.6s-1.3-0.6-2-1c-0.6-0.4-1.2-0.9-1.7-1.4s-1-1.1-1.4-1.7s-0.8-1.3-1-1.9s-0.5-1.4-0.6-2.1
	C398.3,99.7,398.2,99,398.2,98.3"/>
<polyline class="st1" points="356.6,81 358.4,81 358.4,78.5 359.5,77 361.8,81 363.8,81 360.6,75.6 363.3,72.1 361.3,72.1 358.4,76 
	358.4,76 358.4,72.1 356.6,72.1 356.6,81 "/>
<path d="M385.3,76.6c0,0.4,0.3,0.8,0.8,0.8s0.8-0.4,0.8-0.8s-0.3-0.8-0.8-0.8S385.3,76.2,385.3,76.6"/>
<polyline points="385.1,89.3 385.1,99.9 386.1,99.9 386.1,94.5 388.7,94.5 388.7,93.6 386.1,93.6 386.1,89.3 385.1,89.3 "/>
<polyline class="st1" points="403.1,81 408.5,81 408.5,79.5 404.9,79.5 404.9,72.1 403.1,72.1 403.1,81 "/>
<rect x="432" y="89.3" width="1" height="10.7"/>
<path class="st0" d="M49.5,150.8v-27c0-0.7,0.1-1.5,0.2-2.2c0.1-0.7,0.4-1.4,0.6-2.1s0.6-1.3,1-1.9s0.9-1.2,1.4-1.7s1.1-1,1.7-1.4
	s1.3-0.8,2-1c0.7-0.3,1.4-0.5,2.1-0.6c0.7-0.1,1.5-0.2,2.2-0.2h21c0.7,0,1.5,0.1,2.2,0.2s1.4,0.4,2.1,0.6s1.3,0.6,1.9,1
	s1.2,0.9,1.7,1.4s1,1.1,1.4,1.7s0.8,1.3,1,1.9s0.5,1.4,0.6,2.1s0.2,1.5,0.2,2.2v27c0,0.7-0.1,1.5-0.2,2.2s-0.4,1.4-0.6,2.1
	c-0.3,0.7-0.6,1.3-1,1.9s-0.9,1.2-1.4,1.7s-1.1,1-1.7,1.4s-1.3,0.8-1.9,1s-1.4,0.5-2.1,0.6s-1.5,0.2-2.2,0.2h-21
	c-0.7,0-1.5-0.1-2.2-0.2c-0.7-0.1-1.4-0.4-2.1-0.6s-1.3-0.6-2-1c-0.6-0.4-1.2-0.9-1.7-1.4s-1-1.1-1.4-1.7s-0.8-1.3-1-1.9
	c-0.3-0.7-0.5-1.4-0.6-2.1C49.6,152.2,49.5,151.5,49.5,150.8"/>
<path class="st0" d="M96,150.8v-27c0-0.7,0.1-1.5,0.2-2.2s0.4-1.4,0.6-2.1s0.6-1.3,1-1.9s0.9-1.2,1.4-1.7s1.1-1,1.7-1.4
	s1.3-0.8,1.9-1c0.7-0.3,1.4-0.5,2.1-0.6s1.5-0.2,2.2-0.2h21c0.7,0,1.5,0.1,2.2,0.2s1.4,0.4,2.1,0.6c0.7,0.3,1.3,0.6,1.9,1
	s1.2,0.9,1.7,1.4s1,1.1,1.4,1.7s0.8,1.3,1,1.9s0.5,1.4,0.6,2.1s0.2,1.5,0.2,2.2v27c0,0.7-0.1,1.5-0.2,2.2c-0.1,0.7-0.4,1.4-0.6,2.1
	c-0.3,0.7-0.6,1.3-1,1.9s-0.9,1.2-1.4,1.7s-1.1,1-1.7,1.4c-0.6,0.4-1.3,0.8-1.9,1c-0.7,0.3-1.4,0.5-2.1,0.6s-1.4,0.2-2.2,0.2h-21
	c-0.7,0-1.5-0.1-2.2-0.2c-0.7-0.1-1.4-0.4-2.1-0.6s-1.3-0.6-1.9-1s-1.2-0.9-1.7-1.4s-1-1.1-1.4-1.7s-0.8-1.3-1-1.9
	c-0.3-0.7-0.5-1.4-0.6-2.1C96.1,152.2,96,151.5,96,150.8"/>
<polyline class="st1" points="53.8,133.5 60.1,133.5 60.1,132 56,132 60.1,125.7 60.1,124.6 54.2,124.6 54.2,126.1 57.9,126.1 
	53.8,132.4 53.8,133.5 "/>
<path d="M83.2,124.1v0.6c0,1.5-1.9,2.8-3.9,3.1l0.4,0.8c1.7-0.3,3.4-1.2,4.1-2.6c0.5,0.9,1.6,1.5,2.9,1.8l0.4-0.8
	c-1.7-0.3-2.8-1.2-2.8-2.3v-0.6L83.2,124.1"/>
<polyline points="80.5,144 80.5,144.9 86.2,144.9 86.2,146.6 80.2,146.9 80.4,147.8 86.2,147.4 86.2,150 87.2,150 87.2,144 
	80.5,144 "/>
<path class="st1" d="M99.9,133.5h1.9l0.9-2c0.2-0.4,0.4-0.9,0.7-1.5h0.1c0.2,0.5,0.5,1,0.7,1.5l1,2h2l-2.5-4.5l2.3-4.4h-1.9
	l-0.8,1.8c-0.2,0.4-0.4,0.8-0.6,1.4h-0.1c-0.3-0.6-0.4-1-0.7-1.4l-0.9-1.8h-2l2.3,4.3L99.9,133.5"/>
<path d="M129.7,124.1v0.6c0,1.1-1.3,2.1-2.9,2.5l0.4,0.8c1.3-0.3,2.4-1.1,3-2c0.7,1.4,2.3,2.3,4.1,2.6l0.4-0.8
	c-2-0.3-3.9-1.6-3.9-3.1v-0.6L129.7,124.1"/>
<polyline points="126.9,149.1 126.9,149.9 133.8,149.9 133.8,149.1 127.9,149.1 127.9,147.4 133.6,147.4 133.6,146.6 127.9,146.6 
	127.9,144.9 133.6,144.9 133.6,144.1 126.9,144.1 126.9,149.1 "/>
<path class="st0" d="M142.5,150.8v-27c0-0.7,0.1-1.5,0.2-2.2c0.1-0.7,0.4-1.4,0.6-2.1s0.6-1.3,1-1.9s0.9-1.2,1.4-1.7s1.1-1,1.7-1.4
	s1.3-0.8,1.9-1c0.7-0.3,1.4-0.5,2.1-0.6c0.7-0.1,1.5-0.2,2.2-0.2h21c0.7,0,1.5,0.1,2.2,0.2s1.4,0.4,2.1,0.6c0.7,0.3,1.3,0.6,1.9,1
	s1.2,0.9,1.7,1.4s1,1.1,1.4,1.7s0.8,1.3,1,1.9s0.5,1.4,0.6,2.1s0.2,1.5,0.2,2.2v27c0,0.7-0.1,1.5-0.2,2.2c-0.1,0.7-0.4,1.4-0.6,2.1
	c-0.3,0.7-0.6,1.3-1,1.9s-0.9,1.2-1.4,1.7s-1.1,1-1.7,1.4c-0.6,0.4-1.3,0.8-1.9,1c-0.7,0.3-1.4,0.5-2.1,0.6s-1.4,0.2-2.2,0.2h-21
	c-0.7,0-1.5-0.1-2.2-0.2c-0.7-0.1-1.4-0.4-2.1-0.6c-0.7-0.3-1.3-0.6-1.9-1c-0.6-0.4-1.2-0.9-1.7-1.4s-1-1.1-1.4-1.7s-0.8-1.3-1-1.9
	c-0.3-0.7-0.5-1.4-0.6-2.1C142.6,152.2,142.5,151.5,142.5,150.8"/>
<path class="st1" d="M151,133.7c1.2,0,2.1-0.4,2.8-1.3l-0.9-1.1c-0.5,0.5-1.1,0.9-1.8,0.9c-1.4,0-2.3-1.2-2.3-3.1
	c0-1.9,1-3.1,2.3-3.1c0.7,0,1.2,0.3,1.6,0.7l0.9-1.1c-0.6-0.6-1.5-1.1-2.6-1.1c-2.2,0-4.1,1.7-4.1,4.6
	C146.9,132.1,148.7,133.7,151,133.7"/>
<path d="M176.9,124.6v0.8h1.4v0.5c0,0.9-0.7,2-2,2.4l0.5,0.7c1.1-0.4,1.8-1.2,2.1-2.1c0.3,0.5,0.8,1,1.6,1.2l0.4-0.8
	c-1-0.3-1.6-1-1.6-1.5v-0.5h1.7v-0.8L176.9,124.6 M172.4,124.6v0.8h1.7v0.5c0,0.8-0.7,1.9-2.1,2.3l0.4,0.7c1.1-0.4,1.9-1.2,2.2-2
	c0.3,0.5,0.7,0.9,1.4,1.1l0.4-0.7c-0.9-0.3-1.5-0.9-1.5-1.4v-0.5h1.4v-0.8L172.4,124.6"/>
<path d="M176.2,143.5v1.6h-2.9v0.8h2.8v0.3c0,1.6-1.2,2.8-3.1,3.2l0.5,0.8c1.5-0.4,2.7-1.3,3.2-2.6c0.5,1.3,1.7,2.1,3.2,2.6l0.5-0.8
	c-1.8-0.4-3.1-1.6-3.1-3.2v-0.3h2.8v-0.8h-2.9v-1.6H176.2"/>
<path class="st0" d="M189,150.8v-27c0-0.7,0.1-1.5,0.2-2.2c0.1-0.7,0.4-1.4,0.6-2.1s0.6-1.3,1-1.9s0.9-1.2,1.4-1.7s1.1-1,1.7-1.4
	s1.3-0.8,1.9-1c0.7-0.3,1.4-0.5,2.1-0.6s1.5-0.2,2.2-0.2h21c0.7,0,1.5,0.1,2.2,0.2s1.4,0.4,2.1,0.6c0.7,0.3,1.3,0.6,1.9,1
	s1.2,0.9,1.7,1.4s1,1.1,1.4,1.7s0.8,1.3,1,1.9s0.5,1.4,0.6,2.1s0.2,1.5,0.2,2.2v27c0,0.7-0.1,1.5-0.2,2.2c-0.1,0.7-0.4,1.4-0.6,2.1
	c-0.3,0.7-0.6,1.3-1,1.9s-0.9,1.2-1.4,1.7s-1.1,1-1.7,1.4c-0.6,0.4-1.3,0.8-1.9,1c-0.7,0.3-1.4,0.5-2.1,0.6s-1.5,0.2-2.2,0.2h-21
	c-0.7,0-1.5-0.1-2.2-0.2c-0.7-0.1-1.4-0.4-2.1-0.6c-0.7-0.3-1.3-0.6-1.9-1c-0.6-0.4-1.2-0.9-1.7-1.4s-1-1.1-1.4-1.7s-0.8-1.3-1-1.9
	c-0.3-0.7-0.5-1.4-0.6-2.1C189.1,152.2,189,151.5,189,150.8"/>
<path class="st1" d="M195.4,133.5h2.1l2.7-8.9h-1.8l-1.1,4.3c-0.3,1-0.5,1.9-0.8,2.9h-0.1c-0.3-1-0.5-1.9-0.7-2.9l-1.2-4.3h-1.9
	L195.4,133.5"/>
<path d="M219.2,124.5v0.8h3.4v0.1c0,1.2-1.4,2-3.1,2.2l0.4,0.8c1.5-0.2,2.7-0.9,3.2-1.8c0.7,1.2,2.3,2.1,4,2.3l0.4-0.8
	c-1.9-0.2-3.9-1.4-3.9-2.7v-0.1h3.4v-0.8L219.2,124.5"/>
<path d="M222.2,145h2.2v4.1h-2.2V145 M219.6,149.1v0.8h7.3v-0.8h-1.6V145h1.4v-0.8h-7v0.8h1.4v4.1H219.6"/>
<path class="st0" d="M235.5,150.8v-27c0-0.7,0.1-1.5,0.2-2.2c0.1-0.7,0.4-1.4,0.6-2.1s0.6-1.3,1-1.9s0.9-1.2,1.4-1.7s1.1-1,1.7-1.4
	c0.6-0.4,1.3-0.8,1.9-1c0.7-0.3,1.4-0.5,2.1-0.6c0.7-0.1,1.5-0.2,2.2-0.2h21c0.7,0,1.5,0.1,2.2,0.2s1.4,0.4,2.1,0.6s1.3,0.6,2,1
	c0.6,0.4,1.2,0.9,1.7,1.4s1,1.1,1.4,1.7s0.8,1.3,1,1.9s0.5,1.4,0.6,2.1s0.2,1.5,0.2,2.2v27c0,0.7-0.1,1.5-0.2,2.2s-0.4,1.4-0.6,2.1
	c-0.3,0.7-0.6,1.3-1,1.9s-0.9,1.2-1.4,1.7s-1.1,1-1.7,1.4s-1.3,0.8-2,1c-0.7,0.3-1.4,0.5-2.1,0.6s-1.5,0.2-2.2,0.2h-21
	c-0.7,0-1.5-0.1-2.2-0.2c-0.7-0.1-1.4-0.4-2.1-0.6c-0.7-0.3-1.3-0.6-1.9-1c-0.6-0.4-1.2-0.9-1.7-1.4s-1-1.1-1.4-1.7s-0.8-1.3-1-1.9
	c-0.3-0.7-0.5-1.4-0.6-2.1C235.6,152.2,235.5,151.5,235.5,150.8"/>
<path class="st1" d="M242.1,132.1v-2.6h1.2c1.2,0,1.9,0.4,1.9,1.2c0,0.9-0.7,1.4-1.9,1.4L242.1,132.1 M242.1,128.2V126h1.1
	c1.1,0,1.6,0.3,1.6,1.1c0,0.7-0.5,1.2-1.6,1.2h-1.1 M240.3,133.5h3.2c2,0,3.4-0.8,3.4-2.6c0-1.2-0.7-1.9-1.7-2.1v-0.1
	c0.8-0.3,1.2-1.1,1.2-1.9c0-1.7-1.4-2.2-3.2-2.2h-2.9V133.5"/>
<path d="M269.2,124.2v1h-3.5v0.8h3.5c-0.1,1.2-1.8,2.1-3.8,2.3l0.3,0.8c1.8-0.2,3.4-0.9,4-2c0.5,0.7,1.6,1.2,3,1.4l0.4-0.8
	c-1.7-0.2-2.8-0.9-2.9-1.7h3.5v-0.8h-3.5v-1H269.2"/>
<polyline points="264.8,145.3 264.8,146.1 267.4,146.1 267.4,150.8 268.4,150.8 268.4,146.1 271,146.1 271,150.8 272,150.8 
	272,146.1 274.6,146.1 274.6,145.3 264.8,145.3 "/>
<path class="st0" d="M282,150.8v-27c0-0.7,0.1-1.5,0.2-2.2s0.4-1.4,0.6-2.1c0.3-0.7,0.6-1.3,1-1.9s0.9-1.2,1.4-1.7s1.1-1,1.7-1.4
	s1.3-0.8,2-1c0.7-0.3,1.4-0.5,2.1-0.6s1.5-0.2,2.2-0.2h21c0.7,0,1.5,0.1,2.2,0.2s1.4,0.4,2.1,0.6s1.3,0.6,2,1
	c0.6,0.4,1.2,0.9,1.7,1.4s1,1.1,1.4,1.7s0.8,1.3,1,1.9s0.5,1.4,0.6,2.1s0.2,1.5,0.2,2.2v27c0,0.7-0.1,1.5-0.2,2.2s-0.4,1.4-0.6,2.1
	c-0.3,0.7-0.6,1.3-1,1.9s-0.9,1.2-1.4,1.7s-1.1,1-1.7,1.4s-1.3,0.8-2,1c-0.7,0.3-1.4,0.5-2.1,0.6s-1.5,0.2-2.2,0.2h-21
	c-0.7,0-1.5-0.1-2.2-0.2c-0.7-0.1-1.4-0.4-2.1-0.6s-1.3-0.6-2-1c-0.6-0.4-1.2-0.9-1.7-1.4s-1-1.1-1.4-1.7c-0.4-0.6-0.8-1.3-1-1.9
	c-0.3-0.7-0.5-1.4-0.6-2.1C282.1,152.2,282,151.5,282,150.8"/>
<path class="st1" d="M286.8,133.5h1.7V130c0-1-0.2-2.1-0.2-3.1h0.1l0.9,1.9l2.6,4.8h1.8v-8.9H292v3.6c0,1,0.1,2.2,0.2,3.1h-0.1
	l-0.9-1.9l-2.6-4.7h-1.8V133.5"/>
<path d="M315.7,124.2v1h-3.5v0.8h3.5c-0.1,0.9-1.2,1.5-2.9,1.8l0.4,0.8c1.4-0.2,2.5-0.7,3-1.4c0.7,1.1,2.3,1.8,4,2l0.3-0.8
	c-2-0.2-3.7-1.1-3.8-2.3h3.5v-0.8h-3.5v-1h-1"/>
<polyline points="311.4,145.3 311.4,146.1 315.8,146.1 315.8,150.8 316.8,150.8 316.8,146.1 321.2,146.1 321.2,145.3 311.4,145.3 
	"/>
<path class="st0" d="M328.5,150.8v-27c0-0.7,0.1-1.5,0.2-2.2s0.4-1.4,0.6-2.1c0.3-0.7,0.6-1.3,1-1.9s0.9-1.2,1.4-1.7s1.1-1,1.7-1.4
	s1.3-0.8,2-1c0.7-0.3,1.4-0.5,2.1-0.6s1.5-0.2,2.2-0.2h21c0.7,0,1.5,0.1,2.2,0.2s1.4,0.4,2.1,0.6s1.3,0.6,2,1
	c0.6,0.4,1.2,0.9,1.7,1.4s1,1.1,1.4,1.7s0.8,1.3,1,1.9s0.5,1.4,0.6,2.1s0.2,1.5,0.2,2.2v27c0,0.7-0.1,1.5-0.2,2.2s-0.4,1.4-0.6,2.1
	c-0.3,0.7-0.6,1.3-1,1.9s-0.9,1.2-1.4,1.7s-1.1,1-1.7,1.4s-1.3,0.8-2,1c-0.7,0.3-1.4,0.5-2.1,0.6s-1.5,0.2-2.2,0.2h-21
	c-0.7,0-1.5-0.1-2.2-0.2c-0.7-0.1-1.4-0.4-2.1-0.6s-1.3-0.6-2-1c-0.6-0.4-1.2-0.9-1.7-1.4s-1-1.1-1.4-1.7c-0.4-0.6-0.8-1.3-1-1.9
	c-0.3-0.7-0.5-1.4-0.6-2.1C328.6,152.2,328.5,151.5,328.5,150.8"/>
<path class="st1" d="M333.3,133.5h1.6v-3.7c0-0.9-0.1-2.1-0.2-2.9l0,0l0.7,2.1l1.4,3.7h1l1.4-3.7l0.7-2.1h0.1
	c-0.1,0.8-0.2,2.1-0.2,2.9v3.7h1.6v-8.9h-2l-1.5,4.2c-0.2,0.5-0.3,1.1-0.5,1.7h-0.1c-0.2-0.6-0.4-1.1-0.5-1.7l-1.5-4.2h-2V133.5"/>
<rect x="357.8" y="146.4" width="9.8" height="0.8"/>
</svg>
